<svg fill="#fff" viewBox="0 0 200 200" y="0px" x="0px" xmlns:xlink="http://www.w3.org/1999/xlink" xmlns="http://www.w3.org/2000/svg" id="Capa_1" version="1.1"> <rect height="5" width="189.03" y="193.12" x="5.48"></rect> <path d="M43.21,195.62h-4V75.22c-4.41,0.33-7.83,1.79-10.2,4.34c-4.27,4.62-3.8,11.34-3.79,11.41l0.01,0.16v104.5h-4V91.19 	c-0.06-0.97-0.36-8.71,4.85-14.35c3.5-3.78,8.59-5.7,15.13-5.7h2V195.62z"></path> <path d="M180.49,195.62h-4l0.01-104.66c0-0.06,0.45-6.85-3.81-11.43c-2.36-2.54-5.78-3.99-10.17-4.32v120.41h-4V71.14h2 	c6.54,0,11.64,1.92,15.13,5.7c5.21,5.64,4.91,13.38,4.85,14.35V195.62z"></path> <path d="M143.88,29.96h-24.43c-2.43,8.29-10.08,14.35-19.15,14.35s-16.72-6.06-19.15-14.35H57.84c-9.18,0-16.63,7.44-16.63,16.63 	v149.04H74.3v-55.51h52.67v55.51h33.54V46.58C160.51,37.4,153.07,29.96,143.88,29.96z M83.93,110.38H64.67v-25.2h19.26V110.38z 	 M83.93,80.08H64.67v-25.2h19.26V80.08z M136.6,110.38h-19.26v-25.2h19.26V110.38z M136.6,80.08h-19.26v-25.2h19.26V80.08z"></path> <path d="M100.31,46.31c-9.68,0-18.35-6.49-21.07-15.79c-0.59-2.03-0.9-4.11-0.9-6.18c0-12.11,9.85-21.97,21.96-21.97 	s21.96,9.85,21.96,21.97c0,2.07-0.3,4.15-0.9,6.18C118.65,39.81,109.99,46.31,100.31,46.31z M100.31,6.38 	c-9.91,0-17.96,8.06-17.96,17.97c0,1.69,0.25,3.39,0.73,5.05c2.23,7.6,9.31,12.91,17.23,12.91c7.92,0,15-5.31,17.23-12.91 	c0.49-1.66,0.73-3.36,0.73-5.05C118.27,14.43,110.21,6.38,100.31,6.38z"></path> <rect height="22.94" width="4" y="13.25" x="98.86"></rect> <rect height="4" width="18.69" y="22.34" x="92.14"></rect> <rect height="55.51" width="4" y="140.12" x="98"></rect> </svg>