<svg fill="#fff" viewBox="0 0 200 200" y="0px" x="0px" xmlns:xlink="http://www.w3.org/2000/svg" xmlns="http://www.w3.org/2000/svg" id="Capa_1" version="1.1"> <g> 	<path d="M103.67,4.38c5.93,1.33,10.82,4.26,14.4,9.26c6.88,9.59,4.64,23.62-4.96,30.41c-1.39,0.98-2.05,2.01-1.87,3.69 		c0.11,0.98,0.01,1.99,0.02,2.98c0.02,2.09,0.37,2.4,2.45,1.93c3.94-0.88,6.57-3.22,7.42-7.23c1.05-4.92,3.13-9.15,7.42-12.06 		c2.81-1.9,5.87-2.96,9.27-2.97c4.54-0.02,9.09-0.2,13.62,0.02c11.49,0.57,22.7-0.83,33.67-4.25c1.78-0.55,3.6-0.97,5.42-1.37 		c2.96-0.64,5.05,1.03,5.07,4.04c0.05,6.72-2.11,12.73-6.17,18c-1.2,1.56-1.82,3.15-2.01,5.06c-0.65,6.41-3.17,12.06-7.72,16.58 		c-2.98,2.96-5.46,6.28-8.12,9.47c-14.65,17.49-40.51,20.44-58.6,6.66c-0.44-0.34-0.9-0.65-1.72-1.25c0,2.26,0,4.21,0,6.15 		c0,1.56,0.08,3.12-0.02,4.66c-0.09,1.47,0.44,1.99,1.92,1.93c4.87-0.21,9.34,1.12,13.46,3.69c8.68,5.42,13.07,16.09,10.71,26.05 		c-2.43,10.23-11.03,17.78-21.26,18.67c-4.8,0.42-4.75,0.42-4.81,5.26c-0.06,4.6,0.3,9.21-0.34,13.79c-0.21,1.49,0.67,1.65,1.8,1.58 		c4.17-0.25,7.83,1.01,11.05,3.68c4.83,4,6.56,10.91,4.27,17.14c-2.1,5.71-8.12,9.81-14.21,9.68c-2.35-0.05-4.03-1.55-4.15-3.69 		c-0.11-1.99,1.42-3.71,3.63-4.02c1.86-0.26,3.68-0.54,5.2-1.81c2.41-2.02,3.16-4.64,2.45-7.56c-0.7-2.87-2.64-4.73-5.61-5.36 		c-0.06-0.01-0.12-0.02-0.18-0.03c-4.98-0.99-5.17-0.84-6.31,4.02c-1.23,5.28-2.88,10.42-4.97,15.43c-0.73,1.74-1.81,2.98-3.84,3 		c-2.12,0.02-3.23-1.23-3.98-3.06c-2.36-5.77-4.29-11.68-5.47-17.8c-0.28-1.46-0.91-1.96-2.37-1.91c-2.92,0.09-5.85,0.07-8.77,0 		c-9.55-0.21-17.18-7.7-17.48-17.63c-0.27-9.11,6.43-16.88,15.51-18.13c3.11-0.43,6.21-0.24,9.31-0.26 		c1.37-0.01,1.85-0.44,1.84-1.84c-0.04-9.83-0.03-19.66-0.02-29.49c0-0.96-0.08-1.67-1.35-1.71c-12.51-0.4-20.27,9.76-17.77,20.58 		c0.32,1.38,0.99,2.67,1.47,4.02c0.84,2.38,0.07,4.47-1.95,5.35c-2.01,0.87-4.06-0.01-5.24-2.26c-8.3-15.8,3.28-35.22,21.1-35.41 		c4.23-0.05,3.7,0.64,3.73-3.79c0.02-2.84,0-5.69,0-8.57c-0.94,0.04-1.36,0.64-1.88,1.03c-17.82,13.58-44.04,10.64-58.29-6.7 		c-3.36-4.08-7.02-7.89-10.34-11.98c-3.68-4.52-5.38-9.89-5.89-15.66c-0.07-0.75-0.14-1.47-0.67-2.09 		c-3.86-4.51-6.09-9.78-7.16-15.57c0-1.87,0-3.73,0-5.6c1.71-2.49,2.79-2.92,5.66-2.21c1.57,0.39,3.13,0.8,4.69,1.2 		c8.6,2.18,17.12,4.64,26.17,4.3c7.14-0.27,14.29-0.1,21.44-0.02c4.36,0.05,8.06,1.79,11.21,4.78c2.98,2.82,4.31,6.42,5.21,10.31 		c0.92,3.98,4.02,6.74,7.83,7.25c1.36,0.18,2.18-0.1,2.04-1.72c-0.09-1.05-0.11-2.12,0-3.17c0.18-1.73-0.45-2.81-1.91-3.85 		c-9.57-6.78-11.78-20.82-4.9-30.39c3.58-4.99,8.47-7.91,14.39-9.24C98.7,4.38,101.19,4.38,103.67,4.38z M178.32,56.34 		c-0.52,0-0.72-0.06-0.87,0.01c-6.03,2.71-12.44,2.72-18.86,2.59c-1.53-0.03-2.99-0.31-4-1.62c-0.9-1.17-1.15-2.46-0.53-3.85 		c0.74-1.67,2.15-2.41,3.87-2.46c2.8-0.09,5.61,0.1,8.39-0.1c9.34-0.67,15.94-5.36,19.77-13.9c0.39-0.87,1.2-2.01,0.59-2.76 		c-0.58-0.71-1.73,0.11-2.59,0.32c-7.18,1.74-14.26,3.84-21.8,3.59c-7.52-0.24-15.05-0.07-22.57-0.04 		c-2.19,0.01-4.33,0.32-6.28,1.46c-2.89,1.7-4.01,4.46-4.61,7.54c-0.61,3.14-2.07,5.87-4.25,8.16c-2.93,3.09-6.53,4.94-10.82,5.21 		c-1.79,0.11-2.68,0.66-2.53,2.7c0.19,2.6,0.05,5.22,0.04,7.83c0,0.76,0.07,1.44,0.64,2.06c9.86,10.66,23.17,14.79,36.93,10.82 		c4.2-1.21,8-3.17,11.82-6.23c-3.05,0-5.58-0.01-8.11,0c-1.33,0.01-2.46-0.43-3.26-1.49c-0.94-1.24-1.17-2.6-0.44-4.03 		c0.74-1.47,1.96-2.19,3.61-2.2c4.1-0.01,8.23,0.19,12.21-1.05C171.1,66.91,175.57,62.75,178.32,56.34z M39.43,77.67 		c0.38,0.41,0.52,0.6,0.69,0.73c5.37,4,11.39,6.36,18.06,6.85c11.16,0.83,20.58-3.04,28.51-10.85c1.4-1.38,2.11-2.74,1.96-4.72 		c-0.16-2.16-0.19-4.36,0.01-6.52c0.19-2.06-0.78-2.54-2.55-2.68c-7.43-0.61-13.37-5.88-15.02-13.2c-1.51-6.73-4.57-9.17-11.5-9.17 		c-7.9-0.01-15.8,0-23.69,0c-2.55,0-5.08-0.12-7.61-0.59c-4.59-0.85-9.05-2.2-13.6-3.23c-0.52-0.12-1.14-0.6-1.56-0.07 		c-0.37,0.47,0.04,1.07,0.23,1.58c3,8.15,8.78,13.06,17.26,14.78c3.69,0.75,7.44,0.24,11.17,0.41c2.59,0.12,4.38,1.77,4.39,3.95 		c0.02,2.09-1.72,3.9-4.16,3.96c-6.53,0.18-13.08,0.34-19.25-2.44c-0.3-0.13-0.68-0.38-1.09,0.18c2.63,6.12,7.11,10.28,13.55,12.27 		c3.8,1.17,7.73,1.03,11.65,1.04c2.77,0.01,4.56,1.53,4.58,3.83c0.02,2.3-1.78,3.86-4.52,3.89C44.54,77.69,42.14,77.67,39.43,77.67z 		 M96.34,92.27c0,13.24,0,26.49,0,39.73c0,4.81,0,4.81,4.8,4.8c2.4-0.01,2.41-0.01,2.41-2.52c0-27.92-0.01-55.84,0.03-83.76 		c0-1.69-0.19-2.64-2.22-2.11c-0.87,0.23-1.9,0.22-2.78,0c-1.95-0.49-2.27,0.31-2.27,2.07C96.37,64.41,96.34,78.34,96.34,92.27z 		 M114.1,26.27c-0.04-7.93-6.43-14.32-14.23-14.2c-7.94,0.11-14.13,6.41-14.09,14.34c0.03,7.97,6.25,14.14,14.23,14.12 		C107.95,40.5,114.14,34.23,114.1,26.27z M111.27,120.2c0,3.85,0,7.71,0,11.56c0,5.64,0,5.64,5.65,4.64 		c8.22-1.46,14.27-9.97,12.94-18.2c-1.4-8.65-7.97-14.24-16.84-14.42c-1.45-0.03-1.79,0.55-1.77,1.87 		C111.31,110.5,111.27,115.35,111.27,120.2z M88.61,154.45c0-2.96-0.05-5.45,0.02-7.93c0.04-1.29-0.44-1.79-1.73-1.76 		c-2.49,0.06-4.97-0.03-7.46,0.06c-5.17,0.17-9.39,4.41-9.61,9.59c-0.23,5.23,3.52,9.68,8.68,10.45c3.04,0.45,6.08,0.16,9.12,0.28 		c1.25,0.05,1.5-0.66,1.33-1.66C88.42,160.32,88.72,157.14,88.61,154.45z M99.98,179.75c0.3-1.04,0.46-1.57,0.61-2.11 		c2.45-9.07,2.95-18.36,2.96-27.69c0-5.34,0-5.29-5.37-5.21c-1.53,0.02-1.84,0.64-1.87,2.02c-0.08,5.16,0.08,10.32,0.43,15.45 		C97.14,167.98,98.12,173.66,99.98,179.75z"></path> 	<path d="M84.91,195.61c-2.19-0.05-3.84-1.83-3.74-4.03c0.09-2.11,1.81-3.7,3.93-3.65c2.19,0.05,3.84,1.83,3.74,4.03 		C88.75,194.06,87.04,195.65,84.91,195.61z"></path> </g> <rect height="136.69" width="12.38" y="43.88" x="93"></rect> <polygon points="12.98,30.09 65.53,36 73.12,41.48 78.05,49.22 84.52,57.66 94.22,61.45 93,77.06 83.67,82.69 65.53,86.2  	50.83,86.48 36.14,78.19 16.03,56.67 13.64,42.61 10.97,31.92"></polygon> <polygon points="186.61,30.09 134.06,36 126.47,41.48 121.55,49.22 115.08,57.66 105.38,61.45 106.59,77.06 115.92,82.69  	134.06,86.2 148.76,86.48 163.45,78.19 183.56,56.67 185.95,42.61 188.62,31.92"></polygon> <g> </g> <g> </g> <g> </g> <g> </g> <g> </g> <g> </g> <g> </g> <g> </g> <g> </g> <g> </g> <g> </g> <g> </g> <g> </g> <g> </g> <g> </g> </svg>