<svg version="1.1" fill="#2d3663" id="Capa_1" xmlns="http://www.w3.org/2000/svg" xmlns:xlink="http://www.w3.org/1999/xlink" x="0px" y="0px" viewBox="0 0 300 300" xml:space="preserve"> <g> 	<path d="M290.44,145.86C288.33,70.44,226.28,8.57,148.18,9.51C69.32,10.46,6.61,76.21,9.6,155.45 		c2.84,75.33,65.43,136.31,142.76,135.03C229.5,289.32,292.67,225.36,290.44,145.86z M102.1,239.72c0,1.51-0.15,2.98-1.67,3.78 		c-2.33,1.21-4.56-0.32-4.6-3.27c-0.07-6.2-0.21-12.41,0.05-18.59c0.13-3.23-1.01-5.23-3.55-7.1c-5.82-4.29-11.42-8.86-17.1-13.33 		c-3.79-2.99-6.62-6.7-8.52-11.15c-4.35-10.19-8.72-20.36-13.11-30.52c-0.8-1.85-1.14-3.73-1.13-5.75 		c0.03-8.18,0.02-16.36-0.08-24.53c-0.1-7.91,6.22-12.44,13.86-9.86c3.77,1.27,6.24,3.94,7.77,7.45c2.38,5.44,3,11.27,3.16,17.14 		c0.05,1.85-0.83,3.49-2.88,3.68c-2.05,0.18-3.07-1.13-3.37-3.12c-0.6-4.08-1.19-8.17-1.91-12.23c-0.52-2.92-1.86-5.35-4.77-6.59 		c-3.35-1.42-5.45-0.16-5.53,3.45c-0.08,3.79-0.02,7.58-0.02,11.36c0,2.84,0.09,5.68-0.02,8.52c-0.16,4.32,0.92,8.33,2.62,12.24 		c3.67,8.43,7.35,16.85,10.92,25.31c1.75,4.15,4.38,7.54,7.93,10.29c6.4,4.95,12.73,9.99,19.14,14.91c1.93,1.49,2.86,3.23,2.83,5.71 		C102.05,224.91,102.1,232.32,102.1,239.72z M139.22,239.16c0,0.77,0.02,1.56-0.13,2.31c-0.35,1.69-1.57,2.49-3.19,2.41 		c-1.65-0.08-2.73-1.07-2.83-2.79c-0.09-1.54-0.03-3.1-0.05-4.65c-0.18-10.84,0.48-21.7-0.38-32.52 		c-0.85-10.78-9.17-20.88-19.63-23.87c-2.16-0.62-3.88-1.67-5.43-3.24c-4.35-4.41-8.71-8.83-13.22-13.08 		c-3.67-3.47-7.77-6.1-13.21-4.44c-0.89,0.27-1.72,0.74-3.27,1.41c8.04,7.91,15.71,15.45,23.37,23c0.67,0.66,1.38,1.33,1.87,2.12 		c0.92,1.48,0.86,2.99-0.51,4.19c-1.38,1.21-2.84,1.08-4.18-0.11c-0.97-0.85-1.89-1.76-2.81-2.67c-7.8-7.79-15.59-15.58-23.38-23.38 		c-2.86-2.86-2.79-4.3,0.31-6.95c6.6-5.66,14.25-6.19,21.62-1.41c4.95,3.22,8.94,7.54,13.02,11.72c3.39,3.47,7.1,6.12,11.62,8.2 		c13.25,6.09,20.06,16.87,20.39,31.45C139.41,217.63,139.22,228.39,139.22,239.16z M127.71,168.84 		c-12.44-3.88-19.16-14.65-18.93-28.53c0.04-2.48,0.01-4.96,0.01-7.66c-5.82,2-11.12,1.12-15.97-2.37 		c-3.76-2.7-5.37-6.84-4.39-11.05c1.07-4.57,4.08-7.19,8.58-7.72c2.6-0.31,3.95-1.49,5-3.7c4.76-9.96,14.85-13.96,24.51-10.22 		c1.38,0.54,1.86,0.22,1.95-1.2c0.07-1.2,0.23-2.4,0.49-3.57c1.56-6.89,9.45-10.27,15.41-6.44c1.69,1.08,2.71,0.88,4.28-0.05 		c3.05-1.81,5.05-3.99,6.35-7.54c5.17-14.13,19.26-22.48,33.88-20.63c14.47,1.83,26.94,14.08,29.02,28.22 		c1.99,13.49-3.4,23.95-12.99,32.78c-4.2,3.87-8.89,7.11-14.03,9.54c-3.9,1.85-6.4,4.65-8.15,8.51c-3.8,8.43-8.29,16.46-15.1,22.89 		C156.1,170.99,142.47,173.46,127.71,168.84z M188.29,184.83c7.59-7.62,15.17-15.25,22.87-22.77c1.24-1.22,1.09-1.57-0.3-2.22 		c-3.2-1.51-6.26-1.37-9.36,0.37c-5.58,3.13-9.74,7.9-14.09,12.39c-3.57,3.69-7.35,6.58-12.28,8.54 		c-10.73,4.27-16.54,12.85-17.12,24.25c-0.57,11.16-0.17,22.37-0.21,33.55c0,0.94-0.02,1.91-0.26,2.8 		c-0.41,1.55-1.69,2.19-3.15,2.15c-1.41-0.04-2.43-0.88-2.7-2.34c-0.19-1.01-0.27-2.05-0.28-3.07c-0.03-5.77-0.01-11.53-0.01-17.3 		c0.07,0,0.14,0,0.2,0c0-5.68-0.4-11.39,0.08-17.02c1.09-12.66,7.16-22.52,18.74-27.93c6.2-2.9,11.13-6.93,15.75-11.68 		c2.52-2.58,5.08-5.15,7.84-7.47c7.92-6.65,17.9-6.49,24.73,0.26c2.38,2.35,2.54,3.76,0.22,6.1c-8.66,8.74-17.39,17.41-26.12,26.08 		c-1.52,1.51-3.3,2.02-4.98,0.29C186.19,188.08,186.79,186.33,188.29,184.83z M233.67,167.99c-3.3,6.99-6.46,14.03-9.3,21.23 		c-2.13,5.42-5.81,9.69-10.38,13.24c-5.64,4.38-11.23,8.82-16.91,13.14c-1.52,1.16-2.14,2.43-2.11,4.35 		c0.11,6.45,0.06,12.91,0.03,19.36c-0.01,2,0.11,4.2-2.79,4.3c-2.61,0.09-3.59-1.15-3.6-4.44c-0.02-6.97,0.07-13.94-0.04-20.91 		c-0.05-2.84,0.89-4.88,3.16-6.62c6.29-4.8,12.42-9.81,18.69-14.63c3.72-2.86,6.37-6.42,8.17-10.73c3.72-8.86,7.46-17.72,11.37-26.5 		c1.37-3.07,2.1-6.11,1.92-9.46c-0.16-3-0.03-6.02-0.03-9.04c0-3.79-0.02-7.57,0.01-11.36c0.02-1.95,0.08-3.9-2.26-4.65 		c-2-0.65-4.87,0.49-6.08,2.43c-0.45,0.72-0.75,1.55-1,2.36c-1.39,4.44-2.42,8.95-2.64,13.63c-0.03,0.6-0.1,1.21-0.26,1.78 		c-0.44,1.61-1.5,2.55-3.2,2.36c-1.74-0.19-3.02-1.26-2.95-3.02c0.26-6.18,0.58-12.39,3.3-18.13c3.59-7.58,11.37-10.17,17.98-6.04 		c2.5,1.56,3.62,3.77,3.59,6.68c-0.05,6.62-0.15,13.22,0.34,19.85C239.25,154.54,236.77,161.42,233.67,167.99z"></path> 	<path d="M188.66,122.52c6.95-3.28,12.87-7.94,17.45-14.17c5.16-7.01,7.39-14.68,4.97-23.32c-3.89-13.92-16.31-22.25-30.3-20.33 		c-9.88,1.36-18.55,9.53-20.81,19.7c-0.49,2.21-1.2,4.1-3.6,4.89c-8.98,2.96-9.21,13.54-2.24,17.68c2.02,1.2,2.41,3.36,1.22,4.85 		c-1.41,1.77-3.14,1.48-4.84,0.47c-3.47-2.07-5.76-5.09-7.03-8.91c-0.87-2.61-0.57-5.27-0.55-7.93c0.02-2.49-1.43-3.96-3.74-4.04 		c-2.25-0.08-3.72,1.16-4.07,3.44c-1.9,12.24,5.72,23.81,17.72,26.9c2.43,0.63,4.9,0.84,7.4,0.94c1.9,0.08,3.35,1.04,3.32,3.18 		c-0.04,2.14-1.43,2.99-3.41,3.04c-2.41,0.06-4.8,0.02-7.19-0.42c-5.19-0.96-9.67-3.38-14.02-6.69c-0.6,3.05-1.07,5.82-1.71,8.54 		c-0.43,1.8-1.81,2.45-3.57,2.13c-1.81-0.33-2.59-1.56-2.52-3.34c0.02-0.51,0.2-1,0.29-1.51c1.03-6.26,1.58-12.5-1.44-18.43 		c-3.96-7.77-13.94-8.91-19.59-2.27c-1.41,1.65-2.68,3.46-3.28,5.51c-1.22,4.17-3.61,6.24-8.08,5.34c-0.24-0.05-0.52,0-0.77,0.04 		c-1.55,0.21-2.81,0.9-3.36,2.44c-0.57,1.61-0.15,3.03,1.04,4.26c4.27,4.42,11.3,3.55,14.24-1.87c1.14-2.11,2.05-4.35,2.99-6.57 		c0.86-2.04,2.08-3.45,4.52-2.68c1.93,0.61,2.43,2.36,1.55,4.99c-0.24,0.73-0.5,1.46-0.76,2.19c-2.51,7.12-4.16,14.41-3.42,22 		c0.88,9.11,4.7,16.63,13.77,19.76c12.67,4.38,24.44,2.48,34.46-6.97c5.99-5.65,10.02-12.65,13.22-20.14 		C178.98,129.42,182.92,125.23,188.66,122.52z"></path> </g> <g> </g> <g> </g> <g> </g> <g> </g> <g> </g> <g> </g> <g> </g> <g> </g> <g> </g> <g> </g> <g> </g> <g> </g> <g> </g> <g> </g> <g> </g> </svg>