<svg
  version="1.1"
  id="Capa_1"
  xmlns="http://www.w3.org/2000/svg"
  xmlns:xlink="http://www.w3.org/1999/xlink"
  x="0px"
  y="0px"
  viewBox="0 0 300 300"
  fill="#2d3663"
  xml:space="preserve"> <g> 	<path d="M150.22,9.5C72.34,9.26,9.5,72.23,9.5,150.08c0,77.6,62.24,140.34,140.32,140.42c79.26,0.08,139.17-63.63,140.65-137.57 		C292.03,75.24,229.99,9.75,150.22,9.5z M193.72,230.44c-0.25,2.91-1.52,4.22-4.42,4.38c-2.66,0.14-5.35,0.13-8.01,0.02 		c-3.47-0.15-4.72-1.55-4.76-5.04c-0.01-1.27,0-2.55,0-4.17c-1.57,0-2.92,0.06-4.27-0.01c-3.53-0.19-5-1.64-5.15-5.12 		c-0.09-1.98-0.03-3.96-0.03-5.95c0.02-5.08,1.57-6.58,6.68-6.53c0.89,0.01,1.79,0,2.77,0c0-1.88-0.06-3.43,0.01-4.98 		c0.11-2.4,1.33-3.95,3.8-4.06c3-0.13,6.02-0.19,9.02-0.03c2.91,0.16,4.14,1.49,4.37,4.4c0.12,1.45,0.02,2.92,0.02,4.7 		c1.51,0.07,2.84,0.15,4.18,0.18c3.64,0.09,5.12,1.57,5.17,5.26c0.03,2.24,0.03,4.48,0,6.72c-0.05,3.6-1.59,5.22-5.15,5.4 		c-1.27,0.07-2.55,0.01-4.21,0.01C193.74,227.39,193.85,228.93,193.72,230.44z M229.26,103.37c-1.82,12.35-8.57,20.34-21.03,23.18 		c-1.4,0.32-2.7,1.43-3.88,2.38c-4.16,3.35-9.22,3.92-13.75,1.42c-4.1-2.26-6.67-7.16-6.13-11.69c0.61-5.16,3.99-9.06,9.15-10.33 		c3.71-0.91,7.3-0.42,10.16,2.25c1.86,1.73,3.46,1.4,5.32,0.3c4.14-2.44,6.57-7.77,5.62-12.41c-1-4.89-5.77-9.51-10.76-9.83 		c-7.1-0.47-13.78,1.69-20.32,4.16c-0.48,0.18-0.84,1.55-0.74,2.3c1.09,7.88,0.82,15.61-1.97,23.16 		c-2.27,6.15-5.74,11.53-10.05,16.43c-5.26,5.97-5.24,10.64-0.02,16.66c6.44,7.43,6.68,15,0.97,23.07 		c-2.06,2.91-3.84,6.05-5.41,9.25c-0.54,1.1-0.28,2.72-0.04,4.04c0.81,4.47,2.09,5.26,6.17,3.47c10.81-4.75,20.99-4,30.38,3.33 		c11.74,9.16,14.28,26.01,5.89,38.28c-0.61,0.89-1.42,1.87-2.37,2.25c-0.77,0.32-2.21,0.13-2.75-0.42c-0.64-0.66-0.9-1.97-0.82-2.96 		c0.07-0.85,0.84-1.65,1.34-2.45c5.44-8.63,4.79-19.3-1.65-26.94c-6.47-7.67-16.66-10.24-26.01-6.55c-9.15,3.61-14.99,13-14.3,22.98 		c1.04,15.04,17.02,24.89,31.27,19.27c0.88-0.35,1.75-0.73,2.61-1.13c1.6-0.73,2.93-0.43,3.69,1.18c0.76,1.63,0.39,3.31-1.29,3.94 		c-3.43,1.3-6.93,2.67-10.52,3.26c-6.03,0.99-11.76-0.7-17.17-3.42c-2.29,6.56-3.57,7.57-10.35,7.6 		c-10.09,0.05-20.18-0.01-30.27-0.08c-4.85-0.03-7.47-2.37-8.06-7.26c-1.39-11.45-2.7-22.91-4.01-34.37c-0.46-4.02,0.66-7.67,2.9-11 		c1.06-1.57,2.2-3.09,3.24-4.67c3.14-4.76,3.02-8.96-0.36-13.61c-1.22-1.67-2.51-3.29-3.7-4.98c-5.01-7.18-4.57-14.99,1.18-21.57 		c0.34-0.39,0.7-0.76,1.04-1.15c4.32-4.95,4.26-9.86,0.19-15.16c-3.08-4.01-6.29-8.04-8.65-12.48c-4.73-8.94-6.22-18.52-3.78-28.52 		c0.08-0.33,0.09-0.68,0.1-1.03c0-0.16-0.08-0.32-0.23-0.89c-5.56-1.33-11.25-3.1-17.08-3.97c-7.3-1.1-13.16,2.83-14.8,9.12 		c-1.4,5.35,1.2,11,6.14,13.48c1.57,0.79,2.88,0.66,4.29-0.43c4.56-3.51,9.72-3.82,14.13-0.97c4.18,2.7,6.2,7.58,5.19,12.54 		c-1.04,5.07-4.86,8.58-10.39,9.35c-3.74,0.52-6.87-0.9-9.72-3.28c-1.07-0.9-2.4-1.75-3.73-2.05c-12.85-2.87-21.19-13.55-20.78-26.8 		c0.39-12.54,10.09-23.29,22.56-25.28c8.49-1.36,16.55,0.61,24.26,3.53c5.31,2.01,9.1,2.03,14.2-1.39c14.37-9.62,34.67-8,48.33,2.87 		c1.38,1.1,2.52,0.99,4.01,0.42c8.47-3.28,17.14-5.79,26.31-5.79c2.53,0,5.08,0.74,7.57,1.37c1.67,0.42,2.73,1.63,2.22,3.49 		c-0.51,1.85-2.04,2.35-3.7,1.93c-10.47-2.64-20.05,0.9-29.66,4.22c-0.31,0.11-0.59,0.33-0.87,0.49c0.35,1.92,1.29,2.23,3.1,1.75 		c5.89-1.57,11.78-3.22,17.76-4.31c8.96-1.63,17.79,4.06,20.52,12.75c2.64,8.42-1.41,17.12-9.87,21.17 		c-1.83,0.88-1.83,0.88-1.55,3.37c11.73-1.89,21-19.12,10.67-32.05c-0.7-0.87-1.79-1.59-2.11-2.57c-0.37-1.12-0.56-2.83,0.04-3.6 		c0.94-1.21,2.65-1.67,4.09-0.26C227.3,87.68,230.52,94.78,229.26,103.37z"></path> 	<path d="M164,80.5c-11.39-5.85-22.99-6.01-34.52-0.37c-10.07,4.93-15.22,14.34-14.46,25.48c0.67,9.81,4.72,18.03,11.19,25.22 		c4,4.44,6.63,9.54,4.84,15.53c-0.99,3.33-3.06,6.51-5.25,9.27c-3.8,4.77-4.31,9.37-0.81,14.4c1.33,1.91,2.83,3.7,4.13,5.62 		c4.18,6.18,4.4,12.5,0.5,18.9c-0.9,1.47-1.86,2.91-2.92,4.26c-2.57,3.28-3.26,6.91-2.47,10.95c0.39,2.02,0.51,4.1,0.75,6.15 		c0.92,8.12,1.88,16.24,2.72,24.37c0.27,2.58,1.39,3.48,4.02,3.37c2.41-0.1,4.82-0.12,7.24-0.11c2.41,0.01,4.83,0.05,7.24,0.05 		c4.91,0,9.83,0.01,14.74,0c3.4-0.01,4.94-2,3.97-5.32c-0.3-1.04-0.9-2.05-1.59-2.9c-9.11-11.29-9.26-25.6-0.22-36.76 		c1.12-1.38,1.2-2.22,0.21-3.73c-4.15-6.35-4.03-12.79,0.19-19.1c1.34-2,2.89-3.86,4.28-5.84c3.34-4.77,3.02-9.81-0.85-14.16 		c-7.78-8.72-7.79-16.59-0.02-25.41c4.87-5.53,8.21-11.85,9.93-19.03C179.99,98.25,175.1,86.2,164,80.5z M154.25,228.55 		c-2.46,1.33-5.19,2.18-7.94,3.26c-2.66-1.06-5.38-1.92-7.84-3.27c-0.71-0.39-1.22-2.53-0.79-3.24c0.53-0.88,2.5-1.85,3.22-1.5 		c3.72,1.81,7.18,1.71,10.89,0.01c0.74-0.34,2.68,0.63,3.2,1.51C155.44,226.04,154.95,228.17,154.25,228.55z M166.51,111.05 		c-1.01,3.15-2.6,6.19-4.36,9.02c-3.55,5.71-5.49,11.78-5.61,18.51c-0.32,18.94-0.73,37.89-1.13,56.83 		c-0.09,4.39-0.24,8.78-0.44,13.16c-0.2,4.54-4.15,8.17-8.75,8.14c-4.4-0.03-8.4-3.96-8.5-8.41c-0.06-2.5-0.01-5-0.01-7.5 		c-0.22,0-0.44,0-0.66,0c0-7.97,0-15.94,0-23.9c0-0.6,0.01-1.21,0-1.81c-0.01-1.9,0.41-3.52,2.75-3.54c2.33-0.01,2.81,1.64,2.88,3.5 		c0.16,4.47,0.28,8.95,0.39,13.42c0.16,6.2,0.31,12.4,0.43,18.59c0.03,1.94,0.59,3.61,2.73,3.68c2.31,0.08,2.94-1.65,2.98-3.68 		c0.34-17.05,0.65-34.1,1.06-51.14c0.18-7.57,0.4-15.14,0.89-22.69c0.4-6.06,3.04-11.35,6.17-16.5c1.8-2.96,3.46-6.27,4.05-9.63 		c1.47-8.24-4.3-14.75-13.1-15.38c-1.79-0.13-3.65-0.11-5.39,0.26c-10.6,2.26-14.64,10.36-10.13,20.23 		c0.75,1.64,1.67,3.21,2.67,4.71c4.52,6.81,6.56,14.31,6.62,22.44c0.05,7.4,0.27,14.81,0.41,22.21c0.01,0.6,0.01,1.21-0.01,1.81 		c-0.08,1.85-0.79,3.26-2.85,3.29c-2.08,0.04-2.84-1.37-2.89-3.22c-0.09-3.53-0.08-7.06-0.2-10.59c-0.2-5.93-0.53-11.86-0.71-17.8 		c-0.18-5.72-2.39-10.67-5.56-15.3c-2.93-4.27-4.9-8.89-4.96-14.16c-0.1-9.37,4.9-16.1,13.88-18.76c5.02-1.49,10-1.46,14.98,0.22 		C164.82,90.66,169.92,100.33,166.51,111.05z"></path> 	<path d="M69.11,101.71c0.12,2.83,0.84,5.56,2.03,8.02c2.61,5.41,7.47,9.52,13.1,10.5c0.44-1.34,0.2-2.19-0.69-2.87 		c-0.3-0.23-0.67-0.44-1.11-0.64c-7.86-3.62-11.85-11.65-10.04-19.77c2.15-9.67,12.11-16.01,22.4-13.96 		c5.47,1.09,10.84,2.67,16.22,4.15c1.6,0.44,2.7,0.41,3.18-1.78c-7.86-3.11-15.78-5.42-24.12-5.53 		C78.32,79.65,68.62,89.95,69.11,101.71z"></path> 	<path d="M96.34,126.12c3.14-0.01,6.11-2.94,6.19-6.1c0.08-3.28-2.87-6.2-6.25-6.19c-3.41,0.01-6.01,2.59-6.04,6.01 		C90.2,123.32,92.94,126.13,96.34,126.12z"></path> 	<path d="M196.56,113.83c-3.4-0.05-6.34,2.77-6.34,6.08c0,3.17,2.88,6.14,6.03,6.21c3.34,0.08,6.24-2.78,6.26-6.17 		C202.53,116.56,199.93,113.88,196.56,113.83z"></path> 	<path d="M197.13,214.3c-8.05-0.77-8.05-0.77-9.49-9.26c-1.72,0-3.47,0-4.88,0c-0.7,2.75-0.6,6.02-2.18,7.56 		c-1.57,1.54-4.83,1.34-7.38,1.92c0,1.62,0,3.31,0,4.55c2.77,0.71,6.03,0.62,7.54,2.21c1.53,1.61,1.33,4.87,1.93,7.58 		c1.64,0,3.4,0,4.65,0c0.71-2.84,0.59-6.15,2.18-7.65c1.67-1.58,4.99-1.43,7.64-2.04C197.13,217.66,197.13,215.97,197.13,214.3z"></path> </g> <g> </g> <g> </g> <g> </g> <g> </g> <g> </g> <g> </g> <g> </g> <g> </g> <g> </g> <g> </g> <g> </g> <g> </g> <g> </g> <g> </g> <g> </g> </svg>