<svg xml:space="preserve" fill="#2d3663" viewBox="0 0 450 450" y="0px" x="0px" xmlns:xlink="http://www.w3.org/1999/xlink" xmlns="http://www.w3.org/2000/svg" id="Capa_1" version="1.1"> <style type="text/css"> 	.st0{fill:none;stroke:#000000;stroke-miterlimit:10;} 	.st1{fill:none;} </style> <g> 	<g> 		<path d="M317.61,24.18h-16.39l-0.6,0c-3.27-0.03-4.7,0.16-4.91,4.64c-0.1,2.02-0.79,3.66-2.17,5.14c-1.3,1.37-3.08,2.43-5.15,3.08 			c-1.4,0.44-2.98,0.93-4.44,0.93h-75.62c-1.56,0-3.2-0.45-4.46-0.84c-1.98-0.62-3.8-1.75-5.13-3.17c-1.37-1.5-2.08-3.21-2.18-5.25 			c-0.21-4.38-1.59-4.54-4.72-4.53l-17.34,0c-10.81,0-19.27,7.85-19.27,17.88v123.2c0,0,0.39,0.12,0.52,0.11 			c0.13,0,0.5-0.13,0.5-0.13V42.06c0-9.45,8.02-16.86,18.25-16.86h16.54l0.81,0c2.84-0.03,3.51-0.03,3.69,3.55 			c0.11,2.29,0.91,4.22,2.44,5.9c1.45,1.56,3.43,2.79,5.58,3.46c1.33,0.41,3.06,0.89,4.76,0.89h75.62c1.62,0,3.28-0.52,4.76-0.98 			c2.23-0.7,4.15-1.86,5.58-3.36c1.56-1.68,2.34-3.52,2.44-5.8c0.18-3.68,0.87-3.68,3.89-3.66l16.99,0 			c9.81,0,16.93,7.09,16.93,16.86v352.45c0,10.19-7.44,18.17-16.93,18.17h-143.1v1.02h143.1c10.07,0,17.96-8.43,17.96-19.19V42.06 			C335.57,31.7,328.02,24.18,317.61,24.18z"></path> 		<path d="M149.33,413.61l3.03,0.01l0-1.02l-3.73-0.01c0,0-0.47-0.48-0.84-0.22c-0.35,0.25-0.08,0.78-0.08,0.78 			c5.96,8.5,15.91,13.78,25.95,13.78h142.88c0,0,0.31-0.14,0.31-0.5c0-0.43-0.31-0.52-0.31-0.52H173.68 			C164.38,425.91,155.17,421.22,149.33,413.61z"></path> 		<path d="M403.47,407c-8.35,4.08-17.82,8.73-31.88,8.51c-24.87-0.37-25.1-17.77-25.1-18.51V155.66h0.06c1.23,0,2.24-1,2.24-2.24 			v-44.25c0-1.23-1-2.24-2.24-2.24h-0.06V43.2c0-16.51-13.43-29.94-29.94-29.94H173.58c-17.09,0-30.99,13.9-30.99,30.99v23.09 			c-0.99,0.23-1.72,1.12-1.72,2.18v12.07c0,1.06,0.74,1.95,1.72,2.18v13.46c-0.99,0.23-1.72,1.12-1.72,2.18v25.86 			c0,1.06,0.74,1.95,1.72,2.18v7.72c-0.99,0.23-1.72,1.12-1.72,2.18v22.87c0,0,0.35,0.11,0.47,0.12c0.14,0,0.55-0.13,0.55-0.13 			v-22.86c0-0.67,0.54-1.21,1.21-1.21h0.51v-9.64h-0.51c-0.67,0-1.21-0.54-1.21-1.21V99.4c0-0.67,0.54-1.21,1.21-1.21h0.51V82.8 			h-0.51c-0.67,0-1.21-0.54-1.21-1.21V69.52c0-0.67,0.54-1.21,1.21-1.21h0.51V44.25c0-16.52,13.44-29.97,29.97-29.97h142.97 			c15.94,0,28.91,12.97,28.91,28.91v64.76h1.09c0.67,0,1.21,0.54,1.21,1.21v44.25c0,0.67-0.54,1.21-1.21,1.21h-1.09v242.35 			c0,0.19,0.2,19.15,26.11,19.54c0.32,0.01,0.63,0.01,0.94,0.01c13.79,0,23.14-4.57,31.4-8.62c6.91-3.38,12.87-6.3,20.16-6.11 			c0,0,0.34-0.15,0.34-0.52c0-0.34-0.31-0.5-0.31-0.5C416.59,400.57,410.21,403.7,403.47,407z"></path> 		<path d="M247.3,149.91c0.54-0.16,1.08-0.33,1.62-0.51c5.09-1.72,9.73-4.25,13.74-7.85c6.15-5.53,9.85-12.51,11.96-20.41 			c1.11-4.16,1.77-8.39,1.86-12.68c0.06-3.07-0.13-6.14-0.25-9.21c-0.03-0.79-0.35-0.95-1.12-0.83c-1.54,0.24-3.07,0.53-4.62,0.65 			c-3.68,0.29-7.35,0.17-10.98-0.59c-5.46-1.14-10.2-3.55-13.88-7.84c-0.58-0.68-0.93-0.68-1.51,0c-1.5,1.75-3.22,3.24-5.17,4.45 			c-4.4,2.72-9.25,3.85-14.35,4.08c-3.36,0.15-6.71-0.08-10.01-0.77c-0.68-0.14-0.97,0.07-1.06,0.78c-0.08,0.58-0.16,1.16-0.19,1.75 			c-0.29,4.8-0.15,9.57,0.59,14.33c0.66,4.29,1.75,8.46,3.45,12.45c4.86,11.38,13.31,18.7,25.12,22.21c0.59,0.18,1.03,0,1.11-0.46 			c0.11-0.56-0.26-0.79-0.73-0.94c-0.73-0.23-1.47-0.45-2.19-0.7c-6.84-2.42-12.62-6.32-17.04-12.12c-5-6.54-7.44-14.08-8.52-22.13 			c-0.46-3.44-0.57-6.89-0.47-10.35c0.03-1.08,0.14-2.17,0.21-3.25c1.14,0.16,2.18,0.33,3.22,0.44c3.92,0.42,7.83,0.35,11.72-0.37 			c4.92-0.91,9.4-2.8,13.16-6.17c0.66-0.59,1.24-1.26,1.88-1.92c0.24,0.26,0.41,0.43,0.57,0.61c1.63,1.71,3.48,3.14,5.53,4.3 			c4.73,2.66,9.88,3.67,15.25,3.79c2.88,0.07,5.73-0.2,8.65-0.71c0.04,0.38,0.09,0.7,0.11,1.02c0.31,4.49,0.18,8.97-0.46,13.43 			c-0.63,4.4-1.71,8.67-3.46,12.76c-3.4,7.98-8.78,14.17-16.48,18.25c-2.43,1.29-4.98,2.3-7.62,3.08c-0.66,0.2-0.93,0.54-0.78,1 			C246.29,149.96,246.69,150.1,247.3,149.91z"></path> 		<path d="M239.93,132.48c0,0.89,0.18,1.08,1.06,1.08c2.57,0,5.14,0,7.71,0c0.91,0,1.1-0.19,1.1-1.1c0-2.65,0-5.3,0-7.95 			c0-0.24,0-0.47,0-0.78c0.28,0,0.5,0,0.71,0c2.65,0,5.3,0,7.95,0c1,0,1.19-0.19,1.19-1.21c0-2.51,0-5.02,0-7.53 			c0-0.91-0.19-1.11-1.09-1.11c-2.69,0-5.38,0-8.07,0c-0.21,0-0.43,0-0.69,0c0-0.31,0-0.53,0-0.75c0-1.46,0.01-2.91,0-4.37 			c0-0.64-0.28-0.99-0.75-0.96c-0.22,0.02-0.35,0.09-0.45,0.19c0-0.4,0-0.8,0-1.21c0.11,0.1,0.25,0.17,0.45,0.18 			c0.53,0.02,0.74-0.34,0.75-0.83c0.01-0.34,0.01-0.69,0.01-1.03c-0.01-0.88-0.19-1.07-1.07-1.07c-2.57,0-5.14,0-7.71,0 			c-0.92,0-1.09,0.17-1.09,1.1c0,2.65,0,5.3,0,7.95c0,0.24,0,0.47,0,0.78c-0.31,0-0.55,0-0.79,0c-2.67,0-5.34,0-8.01,0 			c-0.85,0-1.06,0.21-1.06,1.08c0,2.55,0,5.1,0,7.65c0,0.91,0.22,1.12,1.16,1.12c2.67,0,5.34,0,8.01,0c0.21,0,0.43,0,0.69,0 			c0,0.34,0,0.61,0,0.87C239.93,127.22,239.93,129.85,239.93,132.48z"></path> 	</g> 	<path d="M121.29,400" class="st0"></path> 	<path d="M108.83,381.88c0.11-0.39,0.22-0.77,0.33-1.14l-9.35-1.43c-0.76,5.12-4.13,9.31-8.7,11.26 		c4.53-0.38,8.92-1.98,12.63-4.67l4.64-3.37L108.83,381.88z" class="st1"></path> 	<path d="M117.68,230.18c-1.27-8.08-0.77-21.5-0.13-31.33c0.29-4.49,1.37-8.2,3.37-11.65c-0.05-0.13-0.09-0.27-0.13-0.4 		c-0.09-0.28-0.17-0.56-0.24-0.85c-0.05-0.2-0.1-0.4-0.14-0.61c-0.06-0.31-0.11-0.62-0.15-0.93c-0.03-0.2-0.06-0.39-0.08-0.6 		c-0.04-0.36-0.05-0.73-0.06-1.1c0-0.16-0.02-0.32-0.02-0.49c0-0.03,0-0.05,0-0.08c-2.57,3.35-4.21,7.34-4.68,11.4 		c-0.14,1.21-0.18,2.46-0.23,3.68c-0.08,2.21-0.16,4.49-0.8,6.66c-0.4,1.37-1.02,2.66-1.61,3.92c-0.57,1.2-1.16,2.44-1.54,3.72 		c-1.34,4.47-0.15,9.4,1.08,13.66c0.25,0.87,0.5,1.77,0.75,2.69c1.29,4.7,2.63,9.55,4.97,13.41c4.02,6.63,9.07,8.11,14.21,8.6 		c0-0.72,0-1.24-0.01-1.55C129.87,247.72,119.9,244.34,117.68,230.18z" class="st1"></path> 	<path d="M98.74,379.57l-12.14-4.41h-3.17c0.08,0.18,0.16,0.36,0.23,0.58c0.22,0.7,0.29,1.7-0.23,2.59 		c-0.18,0.34-0.39,0.7-0.59,1.05c0.01-0.01,0.02-0.01,0.03-0.02c0.15-0.1,0.34-0.22,0.57-0.34c0.23-0.11,0.5-0.26,0.87-0.28 		c0.36-0.01,0.72,0.09,1.08,0.24c0.35,0.15,0.75,0.34,1.06,0.72c0.58,0.73,0.74,1.8,0.5,2.79c-0.24,0.98-0.63,1.84-0.98,2.62 		c-0.36,0.77-0.7,1.46-0.98,2.03c-0.57,1.15-0.88,1.88-0.93,1.86c-0.05-0.02,0.16-0.79,0.67-1.98c0.28-0.63,0.58-1.32,0.91-2.06 		c0.33-0.78,0.71-1.63,0.93-2.56c0.22-0.9,0.07-1.86-0.4-2.47c-0.23-0.3-0.57-0.48-0.9-0.64c-0.33-0.15-0.65-0.25-0.94-0.26 		c-0.57,0.03-1.05,0.34-1.36,0.48c-0.09,0.05-0.17,0.08-0.24,0.11c-0.28,0.47-0.57,0.94-0.87,1.43c-1.17,1.89-2.28,3.56-3.09,4.77 		c-0.81,1.21-1.32,1.95-1.36,1.92c-0.05-0.03,0.37-0.83,1.12-2.07c0.75-1.25,1.82-2.95,2.99-4.83c0.58-0.94,1.14-1.84,1.6-2.67 		c0.48-0.8,0.45-1.68,0.28-2.35c-0.07-0.24-0.15-0.46-0.23-0.65h-0.13L82.88,375c-0.67-0.71-1.66-1.27-2.79-1.59 		c-0.52-0.15-1.12,0.11-1.78,0.76l-1.55,1.53c-0.62,0.95-1.38,2.09-2.22,3.32c-1.09,1.59-2.11,3.02-2.86,4.04 		c-0.75,1.02-1.24,1.63-1.28,1.6c-0.04-0.03,0.36-0.7,1.05-1.76c0.69-1.06,1.67-2.51,2.76-4.1c0.44-0.65,0.87-1.25,1.27-1.83 		l-0.09,0.08l2.12-3.5c0.44-0.73,0.83-1.37,1.17-1.94l-4.62-1.71c-2.19,2.61-4.82,6.07-7.17,9.4l-0.87-0.54 		c1.42-2.61,3.76-6.95,5.26-9.89l-4.9-1.82c-3.24,4.62-8.21,12.13-8.28,12.23c-0.01,0.01-1.44,2.4-0.46,4.59 		c0.92,2.04,3.69,1.22,3.72,1.21l0.67-0.21l-0.01,0.7c0,0.07,0.02,1.89,2.01,2.99c2.22,1.24,5.25-0.22,5.28-0.23l0.16-0.08 		l12.76,2.87l4.5-0.45C92.8,390.06,97.68,385.52,98.74,379.57z M90.3,387.14c-0.31,0.58-0.62,1-0.87,1.27 		c-0.24,0.27-0.4,0.39-0.42,0.38c-0.06-0.05,0.51-0.62,1.03-1.77c0.53-1.12,0.95-2.89,0.54-4.76c-0.42-1.87-1.56-3.29-2.51-4.08 		c-0.96-0.81-1.72-1.09-1.69-1.16c0.01-0.02,0.2,0.02,0.54,0.16c0.34,0.14,0.8,0.39,1.32,0.78c1.04,0.76,2.28,2.23,2.72,4.21 		C91.42,384.15,90.92,386,90.3,387.14z" class="st1"></path> 	<path d="M120.94,382.54c0.18,0.64,0.35,1.28,0.5,1.92l0.05-1.83L120.94,382.54z" class="st1"></path> 	<path d="M110.65,380.97l-0.84,1.25c-1.94,6.62-4.48,14.87-6.16,18.67c-3.94,8.89-10.07,19.7-22.62,24.41 		c-4.23,1.59-8.97,2.38-14.22,2.38c-2.99,0-6.15-0.26-9.46-0.78c-1.1-0.06-2.17-0.24-3.18-0.56c-0.2-0.04-0.4-0.08-0.61-0.12 		c7.34,6.23,16.48,9.51,26.54,9.51c22.86,0,41.46-18.6,41.46-41.46c0-4.06-0.58-8.05-1.73-11.89L110.65,380.97z" class="st1"></path> 	<path d="M57.43,425.87c0.2,0.01,0.4,0.03,0.6,0.03c6.49,0,11.77-5.28,11.77-11.77s-5.28-11.77-11.77-11.77 		c-6.49,0-11.77,5.28-11.77,11.77c0,5.23,3.44,9.68,8.17,11.2C55.44,425.54,56.44,425.72,57.43,425.87z" class="st1"></path> 	<path d="M80.37,372.42c1.22,0.35,2.31,0.95,3.09,1.71l2.14,0.02l-5.94-2.2c-0.08,0.14-0.16,0.27-0.25,0.42 		C79.73,372.32,80.06,372.33,80.37,372.42z" class="st1"></path> 	<path d="M124.51,312.51l-0.91,31.8l13.3-11.93c0.6-0.54,1.5-0.57,2.14-0.08c0.82,0.63,0.88,1.85,0.12,2.55 		l-16.66,15.52l4.84,0.28c1.38,0.08,2.7,0.65,3.71,1.6l7.5,7.06l7.39,1.68l-0.08-0.68l12.61-1.86l-1.97-33.1l0.01-0.06l11.62-60.64 		c0.52-2.7-0.5-5.19-1.86-7.67l-0.22,4.66l0.64-0.73l-0.7,2.17c-0.01,0.13-0.05,0.24-0.11,0.33c-0.54,1.5-5.82,15.19-19.31,15.19 		c-2.18,0-4.58-0.36-7.21-1.18c-3.47-1.09-5.74-4.52-6.74-10.17l-0.11-0.4c-0.08-0.5-0.08-0.5-0.12-1.12 		c-0.24-1.87-0.32-3.7-0.32-5.26l-5.42,3.34L124.51,312.51z" class="st1"></path> 	<path d="M165.63,248.64c-1.4,0.51-2.8,0.93-4.17,1.25c-5.42,1.24-10.95,1.62-15.99,1.62c-2.44,0-4.75-0.09-6.89-0.21 		c-1.62,0.18-3.39,0.22-5.32,0.08c0.01,1.19,0.02,2.69,0.04,4.57c0,0.06-0.14,1.38-0.19,3.33c0.14,0.08,0.29,0.18,0.48,0.28 		c0.95,0.52,1.98,0.91,3.08,1.15c1.43,0.33,3.13,0.41,4.93,0.25c2.07-0.18,4.35-0.69,6.11-1.12l1.7-0.42 		c1.57-0.39,3.06-0.76,4.48-1.04c1.89-0.38,3.7-0.61,5.23-0.66c1.6-0.06,2.83,0.07,3.59,0.19c0.43,0.07,0.76,0.14,0.98,0.19 		c0.3,0.07,0.8,0.2,0.69,0.71c-0.1,0.47-0.52,0.42-1,0.36c-0.2-0.02-0.48-0.06-0.82-0.09c-1.09-0.1-2.23-0.12-3.38-0.06 		c-1.47,0.08-3.2,0.33-5.01,0.72c-1.27,0.27-2.61,0.6-4.02,0.96c-0.69,0.17-1.39,0.35-2.1,0.52c-1.79,0.44-4.13,0.96-6.33,1.13 		c-0.54,0.04-1.07,0.07-1.6,0.07c-1.35,0-2.63-0.15-3.75-0.43c-1.48-0.36-2.57-0.91-3.27-1.34c0.01,1.51,0.08,3.24,0.31,5 		c0.04,0.61,0.04,0.61,0.1,1.01l0.1,0.38c0.94,5.3,2.97,8.45,6.04,9.42c17.81,5.6,24.36-10.86,25.19-13.22l-0.08-0.12l0.18-0.22 		L165.63,248.64z" class="st1"></path> 	<path d="M133.1,247.53c2.2,0.05,11.46-0.11,20.65-5.61c0,0-2.96,6.05-11,8.51c5.67,0.14,12.16-0.1,18.49-1.55 		c1.46-0.34,2.96-0.79,4.45-1.35l0.46-9.82c-1.45-0.64-2.8-1.5-3.95-2.57c-3.36-3.13-5.1-7.9-4.52-12.46 		c0.16-1.27,0.49-2.55,0.81-3.79c0.68-2.63,1.31-5.11,0.45-7.45c-0.84-2.28-2.87-3.78-5.01-5.37c-1.1-0.81-2.21-1.63-3.17-2.58 		c-0.78,0.07-2.49-0.44-4.55-0.65c-2.55-0.31-4.73-0.04-4.94-0.63c-0.09-0.28,0.38-0.75,1.32-1.12c0.93-0.38,2.34-0.62,3.87-0.45 		c1.01,0.11,1.9,0.4,2.64,0.73c-0.2-0.35-0.39-0.72-0.53-1.11c-0.54-1.44-0.58-2.97-0.63-4.46c-0.01-0.29-0.02-0.57-0.03-0.85 		c0-0.09-0.01-0.17-0.01-0.26c-0.01-0.2-0.02-0.39-0.04-0.59c-0.01-0.1-0.02-0.2-0.03-0.31c-0.02-0.18-0.04-0.35-0.06-0.52 		c-0.02-0.11-0.03-0.21-0.05-0.32c-0.02-0.09-0.04-0.17-0.05-0.26c-0.27,0.02-0.55,0.04-0.82,0.07c-0.25,0.02-0.5,0.04-0.76,0.08 		c-0.36,0.04-0.72,0.1-1.08,0.15c-0.24,0.03-0.47,0.07-0.71,0.1c-0.4,0.07-0.79,0.14-1.19,0.21c-0.19,0.04-0.39,0.07-0.58,0.1 		c-0.58,0.11-1.15,0.23-1.72,0.34c-0.6,0.12-1.19,0.24-1.79,0.34c-0.1,0.02-0.2,0.04-0.3,0.05c-0.57,0.1-1.14,0.19-1.71,0.27 		c-0.12,0.02-0.23,0.03-0.35,0.05c-0.57,0.07-1.14,0.13-1.7,0.18c-0.1,0.01-0.19,0.01-0.29,0.02c-0.59,0.04-1.18,0.07-1.75,0.07 		c0,0-0.01,0-0.01,0c-0.05,0-0.1,0-0.15,0c-0.33,0-0.66-0.01-0.99-0.03c-0.14-0.01-0.27-0.02-0.4-0.03 		c-0.24-0.02-0.49-0.04-0.73-0.07c-0.15-0.02-0.3-0.04-0.45-0.06c-0.22-0.03-0.44-0.07-0.66-0.11c-0.15-0.03-0.3-0.06-0.45-0.1 		c-0.21-0.05-0.42-0.1-0.63-0.16c-0.15-0.04-0.3-0.08-0.44-0.13c-0.21-0.06-0.41-0.14-0.61-0.21c-0.14-0.05-0.28-0.11-0.42-0.16 		c-0.21-0.09-0.41-0.18-0.61-0.28c-0.13-0.06-0.26-0.12-0.38-0.19c-0.22-0.12-0.43-0.25-0.64-0.38c-0.1-0.06-0.21-0.12-0.31-0.19 		c-0.31-0.21-0.61-0.43-0.9-0.68c-0.35-0.29-0.67-0.61-0.97-0.95c-0.1-0.11-0.19-0.24-0.28-0.35c-0.2-0.24-0.39-0.48-0.56-0.74 		c-0.1-0.15-0.19-0.31-0.29-0.47c-0.15-0.24-0.29-0.49-0.43-0.75c-0.05-0.1-0.11-0.2-0.16-0.3c-1.67,3.12-2.59,6.48-2.85,10.51 		c-0.64,9.78-1.13,23.12,0.12,31.11c2.38,15.21,13.66,17.31,14.14,17.39C132.96,247.41,133.04,247.46,133.1,247.53z M146.15,210.43 		c-1.11-0.06-1.99-0.98-1.95-2.05c0.04-1.07,0.98-1.88,2.09-1.82c1.11,0.06,1.98,0.98,1.94,2.05 		C148.2,209.68,147.26,210.49,146.15,210.43z M143.01,204.92c0.66-0.51,1.8-1.01,3.15-1.01c1.36,0,2.52,0.49,3.21,1 		c0.7,0.51,0.95,0.98,0.83,1.1c-0.24,0.27-1.83-0.86-4.01-0.84c-2.18-0.01-3.71,1.12-3.96,0.86 		C142.12,205.91,142.35,205.43,143.01,204.92z M138.32,227.69c2.03-1.67,2.04-4.04,2.39-4.01c0.16-0.01,0.42,0.57,0.33,1.56 		c-0.08,0.97-0.62,2.34-1.85,3.37c-1.24,1.02-2.76,1.35-3.81,1.32c-1.06-0.03-1.66-0.34-1.62-0.49 		C133.77,229.1,136.29,229.37,138.32,227.69z M122.33,198.02c0.63-0.5,1.7-0.95,2.94-0.99c1.24-0.03,2.34,0.35,3,0.82 		c0.67,0.47,0.91,0.97,0.75,1.22c-0.35,0.52-1.88,0.09-3.68,0.18c-1.8,0.02-3.3,0.53-3.69,0.03 		C121.49,199.04,121.7,198.53,122.33,198.02z M124.75,210.43c-1.11-0.06-1.99-0.98-1.95-2.05c0.04-1.07,0.98-1.88,2.09-1.82 		c1.11,0.06,1.98,0.98,1.94,2.05C126.8,209.68,125.86,210.49,124.75,210.43z M124.8,204.72c-2.18-0.01-3.71,1.12-3.96,0.86 		c-0.12-0.12,0.1-0.6,0.78-1.11c0.66-0.51,1.8-1.01,3.15-1.01c1.36,0,2.52,0.49,3.21,1c0.69,0.51,0.95,0.98,0.83,1.1 		C128.57,205.82,126.98,204.7,124.8,204.72z M129.77,222.01c-0.36-0.1-0.76-0.4-0.91-0.81c-0.28-0.83,0.08-1.55,0.29-2.18 		c0.5-1.35,1.03-2.77,1.58-4.25c2.3-6.02,4.36-10.83,4.6-10.74c0.24,0.09-1.42,5.04-3.72,11.06c-0.58,1.48-1.13,2.89-1.65,4.23 		c-0.27,0.65-0.5,1.24-0.37,1.65c0.09,0.38,0.62,0.49,1.17,0.55c2.19,0.29,3.54,0.52,3.53,0.65c-0.01,0.12-1.38,0.11-3.58-0.01 		C130.44,222.13,130.13,222.12,129.77,222.01z" class="st1"></path> 	<path d="M138.87,360.43c0.56,0.6,1.36,1.52,2.18,2.63c1.48,1.98,2.45,3.74,2.36,3.79c-0.1,0.06-1.21-1.59-2.68-3.56 		c-0.93-1.24-1.77-2.32-2.24-2.96l-0.43-0.1l-0.1-0.09l-7.6-7.16c-0.84-0.79-1.93-1.26-3.07-1.32l-13.83-0.8 		c-1.25-0.06-2.47,0.33-3.43,1.14l-9.29,7.85l5.86,2.86c0.4-0.23,1.01-0.61,1.75-1.16c0.66-0.49,1.42-1.12,2.29-1.79 		c0.87-0.67,1.86-1.41,3.04-1.94c1.18-0.56,2.42-0.75,3.53-0.79c1.12-0.03,2.11,0.09,2.93,0.22c0.82,0.13,1.48,0.28,1.93,0.4 		c0.45,0.11,0.7,0.19,0.69,0.21c-0.01,0.06-1.03-0.12-2.66-0.33c-1.61-0.18-3.99-0.4-6.26,0.65c-1.13,0.51-2.11,1.22-2.99,1.87 		c-0.87,0.66-1.66,1.27-2.35,1.73c-0.69,0.47-1.29,0.8-1.71,1c-0.02,0.01-0.03,0.01-0.04,0.02l9.87,4.81 		c0.15-0.12,0.33-0.25,0.52-0.39c0.77-0.55,1.89-1.3,3.28-1.81c1.39-0.51,2.78-0.59,3.73-0.4c0.96,0.18,1.47,0.53,1.45,0.56 		c-0.03,0.06-0.57-0.19-1.49-0.28c-0.92-0.11-2.22,0-3.56,0.5c-1.34,0.49-2.45,1.18-3.26,1.67c-0.16,0.1-0.3,0.19-0.44,0.27 		l26.21,12.78l5.19,0.46L145.76,362L138.87,360.43z" class="st1"></path> 	<path d="M73.03,369.5l-0.78-0.29c-0.56,1.1-1.22,2.37-1.9,3.64C71.22,371.72,72.14,370.57,73.03,369.5z" class="st1"></path> 	<path d="M108.47,352l-4.19-27.9l0.01-0.06l3.88-41.35l3.87-12.72c-2.89,2.33-10.02,8.97-12.22,19.09 		c-2.2,10.15-8.29,64.05-8.35,64.6l-0.05,0.18l-0.83,1.62l8.75,4.27L108.47,352z" class="st1"></path> 	<path d="M105.3,324.07l4.08,27.16c1.16-0.97,2.62-1.46,4.13-1.37l3.67,0.21l5.37-4.82l0.94-32.78l2.17-49.25l2.22-1.37 		l-4.55,2.23c-0.02,0.06-0.04,0.11-0.07,0.17l-0.51,1.18c-0.42,0.96-1.06,2.45-1.82,4.42c-0.68,1.75-1.56,4.11-2.36,6.87 		c-0.67,2.38-1.25,7.66-1.35,8.71l3.73,2.98l-3.77,1.59c-0.03,0.57-0.05,1.08-0.07,1.68c-0.22,8.3,0.69,16.61,2.49,22.81 		c0.15,0.6,0.33,1.15,0.51,1.69l0.11,0.32c0.08,0.23,0.15,0.45,0.22,0.68c0.12,0.38,0.24,0.74,0.37,1.08 		c0.17,0.4,0.33,0.8,0.48,1.17c0.24,0.61,0.45,1.14,0.67,1.59l0.84,1.71c0.34,0.71,0.45,0.93,0.12,1.11l-0.13,0.07l-0.15-0.04 		c-0.18-0.05-0.22-0.12-0.58-0.76l-0.91-1.69c-0.26-0.51-0.5-1.08-0.78-1.74c-0.14-0.33-0.29-0.69-0.45-1.06 		c-0.15-0.36-0.28-0.75-0.42-1.15c-0.07-0.22-0.15-0.44-0.23-0.66l-0.11-0.32c-0.19-0.55-0.39-1.12-0.55-1.73 		c-1.9-6.26-2.86-14.69-2.64-23.1c0.03-0.71,0.05-1.41,0.1-2.11l0.02-0.35l0.33-0.14c0.55-0.23,1.07-0.44,1.58-0.64 		c0.31-0.12,0.61-0.24,0.92-0.37c-0.37-0.28-0.74-0.54-1.09-0.79c-0.5-0.36-1.02-0.73-1.54-1.14l-0.2-0.16l-0.01-0.25 		c-0.15-3.39,0.65-6.45,1.48-9.3c0.87-2.9,1.83-5.35,2.48-6.94c0.82-2.01,1.51-3.51,1.94-4.42c0.07-0.15,0.13-0.27,0.19-0.39 		l-8.73,4.29l-4.25,13.97L105.3,324.07z" class="st1"></path> 	<path d="M62.23,371.28c-0.88-1.69-1.97-2.96-3.44-3.94c-0.79-0.53-2.23-1.04-2.94-0.27c-0.39,0.43-0.4,1.1-0.27,1.6 		c0.14,0.57,0.45,1.09,0.78,1.64l0.11,0.19c1.11,1.9,1.9,3.67,2.53,5.59C59.89,374.74,61.04,373.03,62.23,371.28z" class="st1"></path> 	<path d="M170.62,247.63c-0.23-0.27-0.42-0.57-0.56-0.89c-1.12,0.55-2.25,1.05-3.38,1.5l-0.17,3.6l1.97,1.14 		C168.97,251.03,169.69,249.24,170.62,247.63z" class="st1"></path> 	<polygon points="191.38,340.02 189.84,353.84 193.75,353.26" class="st1"></polygon> 	<path d="M177.46,248.7c-1.11,0.39-2.11,0.58-3.02,0.58c-0.4,0-0.78-0.04-1.15-0.11c-0.7-0.14-1.35-0.43-1.89-0.83 		c-0.87,1.56-1.54,3.29-2,5.16l11.89,6.89l13.17,5.37l3.06,1.19c8.01,3.1,13.93,9.95,15.83,18.33c2.01,8.88,4.52,18.79,6.94,28.37 		c0.47,1.85,0.94,3.7,1.4,5.52c4.16-6.76,5.32-15.08,6.34-22.45c1.14-8.23-0.18-13.2-4.04-15.19c-0.94-0.48-1.97-0.74-3.07-1.01 		c-1.34-0.33-2.73-0.67-3.93-1.47c-2.84-1.9-3.45-5.37-4.05-8.73c-0.56-3.15-1.08-6.12-3.26-7.94c-1.85-1.54-4.31-1.73-6.92-1.93 		c-2.01-0.15-4.08-0.32-5.93-1.13c-3.17-1.39-5.09-4.35-6.94-7.21c-0.65-1.01-1.33-2.05-2.04-2.99c-1.41-1.86-3.54-3.38-5.58-4.02 		C181.35,246.65,179.68,247.92,177.46,248.7z" class="st1"></path> 	<path d="M195.38,384.27c0.78,0.02,1.53,0.04,2.28,0.06L195.38,384.27L195.38,384.27z" class="st1"></path> 	<path d="M124.78,191.18c4.05,3.41,10,2.78,15.83,1.59c2.18-0.45,4.5-0.88,6.8-1.06l-0.01-0.02l0.63-0.03l0.41-0.02 		l0,0.01c3.7-0.14,6.65,0.58,8.97,2.21c2.56,1.8,4.14,4.57,5.66,7.25l0.58,1.01c1.61,2.78,3.67,5.77,6.79,6.85l-0.33,0.97 		c-3.44-1.18-5.64-4.36-7.34-7.3l-0.58-1.02c-1.47-2.58-2.98-5.25-5.36-6.92c-2.09-1.47-4.76-2.13-8.14-2.04 		c0.01,0.06,0.02,0.13,0.03,0.19c0.02,0.11,0.03,0.22,0.05,0.32c0.03,0.19,0.05,0.38,0.07,0.57c0.01,0.11,0.02,0.21,0.03,0.32 		c0.02,0.21,0.03,0.41,0.04,0.62c0,0.09,0.01,0.18,0.01,0.27c0.01,0.28,0.02,0.56,0.03,0.84c0.04,1.47,0.08,2.85,0.56,4.13 		c0.85,2.27,2.87,3.76,5.01,5.34c2.18,1.6,4.43,3.26,5.37,5.84c0.97,2.64,0.26,5.4-0.43,8.06c-0.31,1.21-0.63,2.46-0.78,3.66 		c-0.54,4.24,1.07,8.67,4.2,11.58c2.43,2.26,5.77,3.57,9.17,3.59l-0.01,1.02c-1.68-0.01-3.34-0.33-4.91-0.89l-0.42,9 		c5.99-2.43,11.92-6.47,16.05-11.09c1.48-1.65,2.65-6.08,3.42-9c0.2-0.77,0.39-1.47,0.55-2.02c0.85-2.87,0.64-5.84-0.55-8.14 		c-0.33-0.63-0.75-1.25-1.15-1.85c-0.77-1.14-1.57-2.31-1.87-3.72c-0.39-1.8,0.12-3.56,0.6-5.27c0.43-1.53,0.85-2.97,0.66-4.42 		c-0.31-2.46-2.27-4.38-4.17-6.23l-0.3-0.3c-1.83-1.79-4.21-4.53-3.8-7.66l0.22-1.82c0.09-3.12-3.04-5.49-5.74-6.56 		c-1.06-0.42-2.19-0.75-3.28-1.07c-2.08-0.62-4.23-1.25-6.09-2.5c-1.66-1.12-2.96-2.65-4.22-4.13c-0.64-0.75-1.3-1.52-1.99-2.23 		c-4.97-5.04-12.59-7.09-19.41-5.22c-6.82,1.86-12.35,7.5-14.07,14.36c-0.19,0.77-0.33,1.58-0.41,2.41 		c-0.05,0.54-0.08,1.08-0.08,1.61C121.13,185.95,122.45,189.21,124.78,191.18z" class="st1"></path> 	<path d="M161.94,383.96l3.57,28.62h1.75v0.02h39.05l-11.61-27.32C183.96,384.98,171.22,384.41,161.94,383.96z" class="st1"></path> 	<polygon points="189.73,354.89 189.73,354.89 189.83,354.88" class="st1"></polygon> 	<path d="M194.25,384.23L194.25,384.23l-0.65-0.02C193.82,384.22,194.04,384.23,194.25,384.23z" class="st1"></path> 	<path d="M180.75,239.5c-2.87,2.61-6.25,4.93-9.78,6.77c0.38,0.92,1.34,1.66,2.51,1.89c1.03,0.2,2.23,0.06,3.64-0.43 		c1.19-0.42,4.03-1.66,4.74-4.25C182.27,241.97,181.75,240.23,180.75,239.5z" class="st1"></path> 	<path d="M124.9,206.57c-1.12-0.06-2.05,0.75-2.09,1.82c-0.04,1.07,0.83,1.98,1.95,2.05c1.11,0.06,2.05-0.75,2.09-1.82 		C126.88,207.54,126.01,206.63,124.9,206.57z"></path> 	<path d="M127.98,204.45c-0.68-0.51-1.85-1-3.21-1c-1.36,0-2.5,0.5-3.15,1.01c-0.67,0.51-0.9,0.99-0.78,1.11 		c0.25,0.26,1.79-0.87,3.96-0.86c2.17-0.02,3.77,1.1,4.01,0.84C128.93,205.44,128.67,204.96,127.98,204.45z"></path> 	<path d="M146.29,206.57c-1.11-0.06-2.05,0.75-2.09,1.82c-0.04,1.07,0.83,1.98,1.95,2.05c1.11,0.06,2.05-0.75,2.09-1.82 		C148.28,207.54,147.41,206.63,146.29,206.57z"></path> 	<path d="M146.2,205.17c2.17-0.02,3.77,1.1,4.01,0.84c0.12-0.12-0.14-0.59-0.83-1.1c-0.68-0.51-1.85-1-3.21-1 		c-1.36,0-2.5,0.5-3.15,1.01c-0.67,0.51-0.9,0.99-0.78,1.11C142.49,206.29,144.03,205.16,146.2,205.17z"></path> 	<path d="M134.3,222.16c0.01-0.12-1.34-0.36-3.53-0.65c-0.56-0.06-1.08-0.17-1.17-0.55c-0.13-0.4,0.1-1,0.37-1.65 		c0.53-1.34,1.08-2.75,1.65-4.23c2.3-6.02,3.96-10.97,3.72-11.06c-0.24-0.09-2.3,4.72-4.6,10.74c-0.55,1.48-1.08,2.9-1.58,4.25 		c-0.21,0.63-0.58,1.35-0.29,2.18c0.15,0.42,0.56,0.72,0.91,0.81c0.36,0.11,0.67,0.12,0.94,0.13 		C132.92,222.27,134.29,222.28,134.3,222.16z"></path> 	<path d="M133.76,229.43c-0.03,0.15,0.56,0.46,1.62,0.49c1.04,0.04,2.57-0.29,3.81-1.32c1.24-1.03,1.77-2.4,1.85-3.37 		c0.09-0.99-0.17-1.57-0.33-1.56c-0.35-0.02-0.36,2.34-2.39,4.01C136.29,229.37,133.77,229.1,133.76,229.43z"></path> 	<path d="M125.34,199.24c1.8-0.08,3.33,0.34,3.68-0.18c0.15-0.25-0.08-0.75-0.75-1.22c-0.66-0.47-1.76-0.85-3-0.82 		c-1.24,0.04-2.31,0.48-2.94,0.99c-0.64,0.51-0.85,1.02-0.68,1.26C122.04,199.77,123.54,199.26,125.34,199.24z"></path> 	<path d="M170.14,326.41c0.88-0.13,1.22-1.26,1.22-1.26v-5.38c0.6,0.08,2.59,0.15,4.98,0.15c2.86,0,5.18-0.09,5.18-0.2 		c0-0.11-2.32-0.2-5.18-0.2c-2.39,0-4.38,0.06-4.98,0.15v-0.17l1.8-0.38v-9.67c0,0,0.13-2.39-1.88-1.88 		c-2.01,0.5-1.63,4.27-1.63,4.27S169.26,326.53,170.14,326.41z"></path> 	<path d="M88.25,377.96c-0.52-0.39-0.99-0.64-1.32-0.78c-0.33-0.14-0.53-0.19-0.54-0.16c-0.03,0.07,0.72,0.35,1.69,1.16 		c0.96,0.79,2.09,2.21,2.51,4.08c0.41,1.87-0.01,3.64-0.54,4.76c-0.53,1.14-1.09,1.72-1.03,1.77c0.02,0.02,0.17-0.11,0.42-0.38 		c0.24-0.27,0.56-0.69,0.87-1.27c0.61-1.13,1.11-2.99,0.68-4.97C90.53,380.19,89.29,378.72,88.25,377.96z"></path> 	<path d="M193.44,384.21l0.16,0C193.55,384.21,193.5,384.21,193.44,384.21L193.44,384.21z"></path> 	<path d="M197.81,384.33L197.81,384.33c-0.05,0-0.1,0-0.15,0L197.81,384.33z"></path> 	<polygon points="190.43,354.79 189.83,354.88 190.43,354.79"></polygon> 	<path d="M105.3,324.07l4.08,27.16c1.16-0.97,2.62-1.46,4.13-1.37l3.67,0.21l5.37-4.82l0.94-32.78l2.17-49.25l2.22-1.37 		l-4.55,2.23c-0.02,0.06-0.04,0.11-0.07,0.17l-0.51,1.18c-0.42,0.96-1.06,2.45-1.82,4.42c-0.68,1.75-1.56,4.11-2.36,6.87 		c-0.67,2.38-1.25,7.66-1.35,8.71l3.73,2.98l-3.77,1.59c-0.03,0.57-0.05,1.08-0.07,1.68c-0.22,8.3,0.69,16.61,2.49,22.81 		c0.15,0.6,0.33,1.15,0.51,1.69l0.11,0.32c0.08,0.23,0.15,0.45,0.22,0.68c0.12,0.38,0.24,0.74,0.37,1.08 		c0.17,0.4,0.33,0.8,0.48,1.17c0.24,0.61,0.45,1.14,0.67,1.59l0.84,1.71c0.34,0.71,0.45,0.93,0.12,1.11l-0.13,0.07l-0.15-0.04 		c-0.18-0.05-0.22-0.12-0.58-0.76l-0.91-1.69c-0.26-0.51-0.5-1.08-0.78-1.74c-0.14-0.33-0.29-0.69-0.45-1.06 		c-0.15-0.36-0.28-0.75-0.42-1.15c-0.07-0.22-0.15-0.44-0.23-0.66l-0.11-0.32c-0.19-0.55-0.39-1.12-0.55-1.73 		c-1.9-6.26-2.86-14.69-2.64-23.1c0.03-0.71,0.05-1.41,0.1-2.11l0.02-0.35l0.33-0.14c0.55-0.23,1.07-0.44,1.58-0.64 		c0.31-0.12,0.61-0.24,0.92-0.37c-0.37-0.28-0.74-0.54-1.09-0.79c-0.5-0.36-1.02-0.73-1.54-1.14l-0.2-0.16l-0.01-0.25 		c-0.15-3.39,0.65-6.45,1.48-9.3c0.87-2.9,1.83-5.35,2.48-6.94c0.82-2.01,1.51-3.51,1.94-4.42c0.07-0.15,0.13-0.27,0.19-0.39 		l-8.73,4.29l-4.25,13.97L105.3,324.07z" class="st1"></path> 	<path d="M80.37,372.42c1.22,0.35,2.31,0.95,3.09,1.71l2.14,0.02l-5.94-2.2c-0.08,0.14-0.16,0.27-0.25,0.42 		C79.73,372.32,80.06,372.33,80.37,372.42z" class="st1"></path> 	<path d="M108.47,352l-4.19-27.9l0.01-0.06l3.88-41.35l3.87-12.72c-2.89,2.33-10.02,8.97-12.22,19.09 		c-2.2,10.15-8.29,64.05-8.35,64.6l-0.05,0.18l-0.83,1.62l8.75,4.27L108.47,352z" class="st1"></path> 	<path d="M124.51,312.51l-0.91,31.8l13.3-11.93c0.6-0.54,1.5-0.57,2.14-0.08c0.82,0.63,0.88,1.85,0.12,2.55 		l-16.66,15.52l4.84,0.28c1.38,0.08,2.7,0.65,3.71,1.6l7.5,7.06l7.39,1.68l-0.08-0.68l12.61-1.86l-1.97-33.1l0.01-0.06l11.62-60.64 		c0.52-2.7-0.5-5.19-1.86-7.67l-0.22,4.66l0.64-0.73l-0.7,2.17c-0.01,0.13-0.05,0.24-0.11,0.33c-0.54,1.5-5.82,15.19-19.31,15.19 		c-2.18,0-4.58-0.36-7.21-1.18c-3.47-1.09-5.74-4.52-6.74-10.17l-0.11-0.4c-0.08-0.5-0.08-0.5-0.12-1.12 		c-0.24-1.87-0.32-3.7-0.32-5.26l-5.42,3.34L124.51,312.51z" class="st1"></path> 	<path d="M73.03,369.5l-0.78-0.29c-0.56,1.1-1.22,2.37-1.9,3.64C71.22,371.72,72.14,370.57,73.03,369.5z" class="st1"></path> 	<path d="M98.74,379.57l-12.14-4.41h-3.17c0.08,0.18,0.16,0.36,0.23,0.58c0.22,0.7,0.29,1.7-0.23,2.59 		c-0.18,0.34-0.39,0.7-0.59,1.05c0.01-0.01,0.02-0.01,0.03-0.02c0.15-0.1,0.34-0.22,0.57-0.34c0.23-0.11,0.5-0.26,0.87-0.28 		c0.36-0.01,0.72,0.09,1.08,0.24c0.35,0.15,0.75,0.34,1.06,0.72c0.58,0.73,0.74,1.8,0.5,2.79c-0.24,0.98-0.63,1.84-0.98,2.62 		c-0.36,0.77-0.7,1.46-0.98,2.03c-0.57,1.15-0.88,1.88-0.93,1.86c-0.05-0.02,0.16-0.79,0.67-1.98c0.28-0.63,0.58-1.32,0.91-2.06 		c0.33-0.78,0.71-1.63,0.93-2.56c0.22-0.9,0.07-1.86-0.4-2.47c-0.23-0.3-0.57-0.48-0.9-0.64c-0.33-0.15-0.65-0.25-0.94-0.26 		c-0.57,0.03-1.05,0.34-1.36,0.48c-0.09,0.05-0.17,0.08-0.24,0.11c-0.28,0.47-0.57,0.94-0.87,1.43c-1.17,1.89-2.28,3.56-3.09,4.77 		c-0.81,1.21-1.32,1.95-1.36,1.92c-0.05-0.03,0.37-0.83,1.12-2.07c0.75-1.25,1.82-2.95,2.99-4.83c0.58-0.94,1.14-1.84,1.6-2.67 		c0.48-0.8,0.45-1.68,0.28-2.35c-0.07-0.24-0.15-0.46-0.23-0.65h-0.13L82.88,375c-0.67-0.71-1.66-1.27-2.79-1.59 		c-0.52-0.15-1.12,0.11-1.78,0.76l-1.55,1.53c-0.62,0.95-1.38,2.09-2.22,3.32c-1.09,1.59-2.11,3.02-2.86,4.04 		c-0.75,1.02-1.24,1.63-1.28,1.6c-0.04-0.03,0.36-0.7,1.05-1.76c0.69-1.06,1.67-2.51,2.76-4.1c0.44-0.65,0.87-1.25,1.27-1.83 		l-0.09,0.08l2.12-3.5c0.44-0.73,0.83-1.37,1.17-1.94l-4.62-1.71c-2.19,2.61-4.82,6.07-7.17,9.4l-0.87-0.54 		c1.42-2.61,3.76-6.95,5.26-9.89l-4.9-1.82c-3.24,4.62-8.21,12.13-8.28,12.23c-0.01,0.01-1.44,2.4-0.46,4.59 		c0.92,2.04,3.69,1.22,3.72,1.21l0.67-0.21l-0.01,0.7c0,0.07,0.02,1.89,2.01,2.99c2.22,1.24,5.25-0.22,5.28-0.23l0.16-0.08 		l12.76,2.87l4.5-0.45C92.8,390.06,97.68,385.52,98.74,379.57z" class="st1"></path> 	<path d="M62.23,371.28c-0.88-1.69-1.97-2.96-3.44-3.94c-0.79-0.53-2.23-1.04-2.94-0.27c-0.39,0.43-0.4,1.1-0.27,1.6 		c0.14,0.57,0.45,1.09,0.78,1.64l0.11,0.19c1.11,1.9,1.9,3.67,2.53,5.59C59.89,374.74,61.04,373.03,62.23,371.28z" class="st1"></path> 	<path d="M177.46,248.7c-1.11,0.39-2.11,0.58-3.02,0.58c-0.4,0-0.78-0.04-1.15-0.11c-0.7-0.14-1.35-0.43-1.89-0.83 		c-0.87,1.56-1.54,3.29-2,5.16l11.89,6.89l13.17,5.37l3.06,1.19c8.01,3.1,13.93,9.95,15.83,18.33c2.01,8.88,4.52,18.79,6.94,28.37 		c0.47,1.85,0.94,3.7,1.4,5.52c4.16-6.76,5.32-15.08,6.34-22.45c1.14-8.23-0.18-13.2-4.04-15.19c-0.94-0.48-1.97-0.74-3.07-1.01 		c-1.34-0.33-2.73-0.67-3.93-1.47c-2.84-1.9-3.45-5.37-4.05-8.73c-0.56-3.15-1.08-6.12-3.26-7.94c-1.85-1.54-4.31-1.73-6.92-1.93 		c-2.01-0.15-4.08-0.32-5.93-1.13c-3.17-1.39-5.09-4.35-6.94-7.21c-0.65-1.01-1.33-2.05-2.04-2.99c-1.41-1.86-3.54-3.38-5.58-4.02 		C181.35,246.65,179.68,247.92,177.46,248.7z" class="st1"></path> 	<path d="M124.78,191.18c4.05,3.41,10,2.78,15.83,1.59c2.18-0.45,4.5-0.88,6.8-1.06l-0.01-0.02l0.63-0.03l0.41-0.02 		l0,0.01c3.7-0.14,6.65,0.58,8.97,2.21c2.56,1.8,4.14,4.57,5.66,7.25l0.58,1.01c1.61,2.78,3.67,5.77,6.79,6.85l-0.33,0.97 		c-3.44-1.18-5.64-4.36-7.34-7.3l-0.58-1.02c-1.47-2.58-2.98-5.25-5.36-6.92c-2.09-1.47-4.76-2.13-8.14-2.04 		c0.01,0.06,0.02,0.13,0.03,0.19c0.02,0.11,0.03,0.22,0.05,0.32c0.03,0.19,0.05,0.38,0.07,0.57c0.01,0.11,0.02,0.21,0.03,0.32 		c0.02,0.21,0.03,0.41,0.04,0.62c0,0.09,0.01,0.18,0.01,0.27c0.01,0.28,0.02,0.56,0.03,0.84c0.04,1.47,0.08,2.85,0.56,4.13 		c0.85,2.27,2.87,3.76,5.01,5.34c2.18,1.6,4.43,3.26,5.37,5.84c0.97,2.64,0.26,5.4-0.43,8.06c-0.31,1.21-0.63,2.46-0.78,3.66 		c-0.54,4.24,1.07,8.67,4.2,11.58c2.43,2.26,5.77,3.57,9.17,3.59l-0.01,1.02c-1.68-0.01-3.34-0.33-4.91-0.89l-0.42,9 		c5.99-2.43,11.92-6.47,16.05-11.09c1.48-1.65,2.65-6.08,3.42-9c0.2-0.77,0.39-1.47,0.55-2.02c0.85-2.87,0.64-5.84-0.55-8.14 		c-0.33-0.63-0.75-1.25-1.15-1.85c-0.77-1.14-1.57-2.31-1.87-3.72c-0.39-1.8,0.12-3.56,0.6-5.27c0.43-1.53,0.85-2.97,0.66-4.42 		c-0.31-2.46-2.27-4.38-4.17-6.23l-0.3-0.3c-1.83-1.79-4.21-4.53-3.8-7.66l0.22-1.82c0.09-3.12-3.04-5.49-5.74-6.56 		c-1.06-0.42-2.19-0.75-3.28-1.07c-2.08-0.62-4.23-1.25-6.09-2.5c-1.66-1.12-2.96-2.65-4.22-4.13c-0.64-0.75-1.3-1.52-1.99-2.23 		c-4.97-5.04-12.59-7.09-19.41-5.22c-6.82,1.86-12.35,7.5-14.07,14.36c-0.19,0.77-0.33,1.58-0.41,2.41 		c-0.05,0.54-0.08,1.08-0.08,1.61C121.13,185.95,122.45,189.21,124.78,191.18z" class="st1"></path> 	<path d="M166.68,248.24l-0.17,3.6l1.97,1.14c0.49-1.94,1.21-3.73,2.14-5.35c-0.23-0.27-0.42-0.57-0.56-0.89 		C168.94,247.29,167.81,247.79,166.68,248.24z" class="st1"></path> 	<path d="M108.83,381.88c0.11-0.39,0.22-0.77,0.33-1.14l-9.35-1.43c-0.76,5.12-4.13,9.31-8.7,11.26 		c4.53-0.38,8.92-1.98,12.63-4.67l4.64-3.37L108.83,381.88z" class="st1"></path> 	<path d="M133.1,247.53c2.2,0.05,11.46-0.11,20.65-5.61c0,0-2.96,6.05-11,8.51c5.67,0.14,12.16-0.1,18.49-1.55 		c1.46-0.34,2.96-0.79,4.45-1.35l0.46-9.82c-1.45-0.64-2.8-1.5-3.95-2.57c-3.36-3.13-5.1-7.9-4.52-12.46 		c0.16-1.27,0.49-2.55,0.81-3.79c0.68-2.63,1.31-5.11,0.45-7.45c-0.84-2.28-2.87-3.78-5.01-5.37c-1.1-0.81-2.21-1.63-3.17-2.58 		c-0.78,0.07-2.49-0.44-4.55-0.65c-2.55-0.31-4.73-0.04-4.94-0.63c-0.09-0.28,0.38-0.75,1.32-1.12c0.93-0.38,2.34-0.62,3.87-0.45 		c1.01,0.11,1.9,0.4,2.64,0.73c-0.2-0.35-0.39-0.72-0.53-1.11c-0.54-1.44-0.58-2.97-0.63-4.46c-0.01-0.29-0.02-0.57-0.03-0.85 		c0-0.09-0.01-0.17-0.01-0.26c-0.01-0.2-0.02-0.39-0.04-0.59c-0.01-0.1-0.02-0.2-0.03-0.31c-0.02-0.18-0.04-0.35-0.06-0.52 		c-0.02-0.11-0.03-0.21-0.05-0.32c-0.02-0.09-0.04-0.17-0.05-0.26c-0.27,0.02-0.55,0.04-0.82,0.07c-0.25,0.02-0.5,0.04-0.76,0.08 		c-0.36,0.04-0.72,0.1-1.08,0.15c-0.24,0.03-0.47,0.07-0.71,0.1c-0.4,0.07-0.79,0.14-1.19,0.21c-0.19,0.04-0.39,0.07-0.58,0.1 		c-0.58,0.11-1.15,0.23-1.72,0.34c-0.6,0.12-1.19,0.24-1.79,0.34c-0.1,0.02-0.2,0.04-0.3,0.05c-0.57,0.1-1.14,0.19-1.71,0.27 		c-0.12,0.02-0.23,0.03-0.35,0.05c-0.57,0.07-1.14,0.13-1.7,0.18c-0.1,0.01-0.19,0.01-0.29,0.02c-0.59,0.04-1.18,0.07-1.75,0.07 		c0,0-0.01,0-0.01,0c-0.05,0-0.1,0-0.15,0c-0.33,0-0.66-0.01-0.99-0.03c-0.14-0.01-0.27-0.02-0.4-0.03 		c-0.24-0.02-0.49-0.04-0.73-0.07c-0.15-0.02-0.3-0.04-0.45-0.06c-0.22-0.03-0.44-0.07-0.66-0.11c-0.15-0.03-0.3-0.06-0.45-0.1 		c-0.21-0.05-0.42-0.1-0.63-0.16c-0.15-0.04-0.3-0.08-0.44-0.13c-0.21-0.06-0.41-0.14-0.61-0.21c-0.14-0.05-0.28-0.11-0.42-0.16 		c-0.21-0.09-0.41-0.18-0.61-0.28c-0.13-0.06-0.26-0.12-0.38-0.19c-0.22-0.12-0.43-0.25-0.64-0.38c-0.1-0.06-0.21-0.12-0.31-0.19 		c-0.31-0.21-0.61-0.43-0.9-0.68c-0.35-0.29-0.67-0.61-0.97-0.95c-0.1-0.11-0.19-0.24-0.28-0.35c-0.2-0.24-0.39-0.48-0.56-0.74 		c-0.1-0.15-0.19-0.31-0.29-0.47c-0.15-0.24-0.29-0.49-0.43-0.75c-0.05-0.1-0.11-0.2-0.16-0.3c-1.67,3.12-2.59,6.48-2.85,10.51 		c-0.64,9.78-1.13,23.12,0.12,31.11c2.38,15.21,13.66,17.31,14.14,17.39C132.96,247.41,133.04,247.46,133.1,247.53z" class="st1"></path> 	<path d="M117.68,230.18c-1.27-8.08-0.77-21.5-0.13-31.33c0.29-4.49,1.37-8.2,3.37-11.65c-0.05-0.13-0.09-0.27-0.13-0.4 		c-0.09-0.28-0.17-0.56-0.24-0.85c-0.05-0.2-0.1-0.4-0.14-0.61c-0.06-0.31-0.11-0.62-0.15-0.93c-0.03-0.2-0.06-0.39-0.08-0.6 		c-0.04-0.36-0.05-0.73-0.06-1.1c0-0.16-0.02-0.32-0.02-0.49c0-0.03,0-0.05,0-0.08c-2.57,3.35-4.21,7.34-4.68,11.4 		c-0.14,1.21-0.18,2.46-0.23,3.68c-0.08,2.21-0.16,4.49-0.8,6.66c-0.4,1.37-1.02,2.66-1.61,3.92c-0.57,1.2-1.16,2.44-1.54,3.72 		c-1.34,4.47-0.15,9.4,1.08,13.66c0.25,0.87,0.5,1.77,0.75,2.69c1.29,4.7,2.63,9.55,4.97,13.41c4.02,6.63,9.07,8.11,14.21,8.6 		c0-0.72,0-1.24-0.01-1.55C129.87,247.72,119.9,244.34,117.68,230.18z" class="st1"></path> 	<path d="M165.63,248.64c-1.4,0.51-2.8,0.93-4.17,1.25c-5.42,1.24-10.95,1.62-15.99,1.62c-2.44,0-4.75-0.09-6.89-0.21 		c-1.62,0.18-3.39,0.22-5.32,0.08c0.01,1.19,0.02,2.69,0.04,4.57c0,0.06-0.14,1.38-0.19,3.33c0.14,0.08,0.29,0.18,0.48,0.28 		c0.95,0.52,1.98,0.91,3.08,1.15c1.43,0.33,3.13,0.41,4.93,0.25c2.07-0.18,4.35-0.69,6.11-1.12l1.7-0.42 		c1.57-0.39,3.06-0.76,4.48-1.04c1.89-0.38,3.7-0.61,5.23-0.66c1.6-0.06,2.83,0.07,3.59,0.19c0.43,0.07,0.76,0.14,0.98,0.19 		c0.3,0.07,0.8,0.2,0.69,0.71c-0.1,0.47-0.52,0.42-1,0.36c-0.2-0.02-0.48-0.06-0.82-0.09c-1.09-0.1-2.23-0.12-3.38-0.06 		c-1.47,0.08-3.2,0.33-5.01,0.72c-1.27,0.27-2.61,0.6-4.02,0.96c-0.69,0.17-1.39,0.35-2.1,0.52c-1.79,0.44-4.13,0.96-6.33,1.13 		c-0.54,0.04-1.07,0.07-1.6,0.07c-1.35,0-2.63-0.15-3.75-0.43c-1.48-0.36-2.57-0.91-3.27-1.34c0.01,1.51,0.08,3.24,0.31,5 		c0.04,0.61,0.04,0.61,0.1,1.01l0.1,0.38c0.94,5.3,2.97,8.45,6.04,9.42c17.81,5.6,24.36-10.86,25.19-13.22l-0.08-0.12l0.18-0.22 		L165.63,248.64z" class="st1"></path> 	<path d="M180.75,239.5c-2.87,2.61-6.25,4.93-9.78,6.77c0.38,0.92,1.34,1.66,2.51,1.89c1.03,0.2,2.23,0.06,3.64-0.43 		c1.19-0.42,4.03-1.66,4.74-4.25C182.27,241.97,181.75,240.23,180.75,239.5z" class="st1"></path> 	<polygon points="191.38,340.02 189.84,353.84 193.75,353.26" class="st1"></polygon> 	<path d="M161.94,383.96l3.57,28.62h1.75v0.02h39.05l-11.61-27.32C183.96,384.98,171.22,384.41,161.94,383.96z" class="st1"></path> 	<path d="M138.87,360.43c0.56,0.6,1.36,1.52,2.18,2.63c1.48,1.98,2.45,3.74,2.36,3.79c-0.1,0.06-1.21-1.59-2.68-3.56 		c-0.93-1.24-1.77-2.32-2.24-2.96l-0.43-0.1l-0.1-0.09l-7.6-7.16c-0.84-0.79-1.93-1.26-3.07-1.32l-13.83-0.8 		c-1.25-0.06-2.47,0.33-3.43,1.14l-9.29,7.85l5.86,2.86c0.4-0.23,1.01-0.61,1.75-1.16c0.66-0.49,1.42-1.12,2.29-1.79 		c0.87-0.67,1.86-1.41,3.04-1.94c1.18-0.56,2.42-0.75,3.53-0.79c1.12-0.03,2.11,0.09,2.93,0.22c0.82,0.13,1.48,0.28,1.93,0.4 		c0.45,0.11,0.7,0.19,0.69,0.21c-0.01,0.06-1.03-0.12-2.66-0.33c-1.61-0.18-3.99-0.4-6.26,0.65c-1.13,0.51-2.11,1.22-2.99,1.87 		c-0.87,0.66-1.66,1.27-2.35,1.73c-0.69,0.47-1.29,0.8-1.71,1c-0.02,0.01-0.03,0.01-0.04,0.02l9.87,4.81 		c0.15-0.12,0.33-0.25,0.52-0.39c0.77-0.55,1.89-1.3,3.28-1.81c1.39-0.51,2.78-0.59,3.73-0.4c0.96,0.18,1.47,0.53,1.45,0.56 		c-0.03,0.06-0.57-0.19-1.49-0.28c-0.92-0.11-2.22,0-3.56,0.5c-1.34,0.49-2.45,1.18-3.26,1.67c-0.16,0.1-0.3,0.19-0.44,0.27 		l26.21,12.78l5.19,0.46L145.76,362L138.87,360.43z" class="st1"></path> 	<path d="M120.94,382.54c0.18,0.64,0.35,1.28,0.5,1.92l0.05-1.83L120.94,382.54z" class="st1"></path> 	<path d="M57.43,425.87c0.2,0.01,0.4,0.03,0.6,0.03c6.49,0,11.77-5.28,11.77-11.77s-5.28-11.77-11.77-11.77 		c-6.49,0-11.77,5.28-11.77,11.77c0,5.23,3.44,9.68,8.17,11.2C55.44,425.54,56.44,425.72,57.43,425.87z" class="st1"></path> 	<path d="M110.65,380.97l-0.84,1.25c-1.94,6.62-4.48,14.87-6.16,18.67c-3.94,8.89-10.07,19.7-22.62,24.41 		c-4.23,1.59-8.97,2.38-14.22,2.38c-2.99,0-6.15-0.26-9.46-0.78c-1.1-0.06-2.17-0.24-3.18-0.56c-0.2-0.04-0.4-0.08-0.61-0.12 		c7.34,6.23,16.48,9.51,26.54,9.51c22.86,0,41.46-18.6,41.46-41.46c0-4.06-0.58-8.05-1.73-11.89L110.65,380.97z" class="st1"></path> 	<path d="M98.74,379.57l-12.14-4.41h-3.17c0.08,0.18,0.16,0.36,0.23,0.58c0.22,0.7,0.29,1.7-0.23,2.59 		c-0.18,0.34-0.39,0.7-0.59,1.05c0.01-0.01,0.02-0.01,0.03-0.02c0.15-0.1,0.34-0.22,0.57-0.34c0.23-0.11,0.5-0.26,0.87-0.28 		c0.36-0.01,0.72,0.09,1.08,0.24c0.35,0.15,0.75,0.34,1.06,0.72c0.58,0.73,0.74,1.8,0.5,2.79c-0.24,0.98-0.63,1.84-0.98,2.62 		c-0.36,0.77-0.7,1.46-0.98,2.03c-0.57,1.15-0.88,1.88-0.93,1.86c-0.05-0.02,0.16-0.79,0.67-1.98c0.28-0.63,0.58-1.32,0.91-2.06 		c0.33-0.78,0.71-1.63,0.93-2.56c0.22-0.9,0.07-1.86-0.4-2.47c-0.23-0.3-0.57-0.48-0.9-0.64c-0.33-0.15-0.65-0.25-0.94-0.26 		c-0.57,0.03-1.05,0.34-1.36,0.48c-0.09,0.05-0.17,0.08-0.24,0.11c-0.28,0.47-0.57,0.94-0.87,1.43c-1.17,1.89-2.28,3.56-3.09,4.77 		c-0.81,1.21-1.32,1.95-1.36,1.92c-0.05-0.03,0.37-0.83,1.12-2.07c0.75-1.25,1.82-2.95,2.99-4.83c0.58-0.94,1.14-1.84,1.6-2.67 		c0.48-0.8,0.45-1.68,0.28-2.35c-0.07-0.24-0.15-0.46-0.23-0.65h-0.13L82.88,375c-0.67-0.71-1.66-1.27-2.79-1.59 		c-0.52-0.15-1.12,0.11-1.78,0.76l-1.55,1.53c-0.62,0.95-1.38,2.09-2.22,3.32c-1.09,1.59-2.11,3.02-2.86,4.04 		c-0.75,1.02-1.24,1.63-1.28,1.6c-0.04-0.03,0.36-0.7,1.05-1.76c0.69-1.06,1.67-2.51,2.76-4.1c0.44-0.65,0.87-1.25,1.27-1.83 		l-0.09,0.08l2.12-3.5c0.44-0.73,0.83-1.37,1.17-1.94l-4.62-1.71c-2.19,2.61-4.82,6.07-7.17,9.4l-0.87-0.54 		c1.42-2.61,3.76-6.95,5.26-9.89l-4.9-1.82c-3.24,4.62-8.21,12.13-8.28,12.23c-0.01,0.01-1.44,2.4-0.46,4.59 		c0.92,2.04,3.69,1.22,3.72,1.21l0.67-0.21l-0.01,0.7c0,0.07,0.02,1.89,2.01,2.99c2.22,1.24,5.25-0.22,5.28-0.23l0.16-0.08 		l12.76,2.87l4.5-0.45C92.8,390.06,97.68,385.52,98.74,379.57z" class="st1"></path> 	<path d="M62.23,371.28c-0.88-1.69-1.97-2.96-3.44-3.94c-0.79-0.53-2.23-1.04-2.94-0.27c-0.39,0.43-0.4,1.1-0.27,1.6 		c0.14,0.57,0.45,1.09,0.78,1.64l0.11,0.19c1.11,1.9,1.9,3.67,2.53,5.59C59.89,374.74,61.04,373.03,62.23,371.28z" class="st1"></path> 	<path d="M73.03,369.5l-0.78-0.29c-0.56,1.1-1.22,2.37-1.9,3.64C71.22,371.72,72.14,370.57,73.03,369.5z" class="st1"></path> 	<path d="M80.37,372.42c1.22,0.35,2.31,0.95,3.09,1.71l2.14,0.02l-5.94-2.2c-0.08,0.14-0.16,0.27-0.25,0.42 		C79.73,372.32,80.06,372.33,80.37,372.42z" class="st1"></path> 	<path d="M57.43,425.87c0.2,0.01,0.4,0.03,0.6,0.03c6.49,0,11.77-5.28,11.77-11.77s-5.28-11.77-11.77-11.77 		c-6.49,0-11.77,5.28-11.77,11.77c0,5.23,3.44,9.68,8.17,11.2C55.44,425.54,56.44,425.72,57.43,425.87z" class="st1"></path> 	<path d="M108.83,381.88c0.11-0.39,0.22-0.77,0.33-1.14l-9.35-1.43c-0.76,5.12-4.13,9.31-8.7,11.26 		c4.53-0.38,8.92-1.98,12.63-4.67l4.64-3.37L108.83,381.88z" class="st1"></path> 	<path d="M110.65,380.97l-0.84,1.25c-1.94,6.62-4.48,14.87-6.16,18.67c-3.94,8.89-10.07,19.7-22.62,24.41 		c-4.23,1.59-8.97,2.38-14.22,2.38c-2.99,0-6.15-0.26-9.46-0.78c-1.1-0.06-2.17-0.24-3.18-0.56c-0.2-0.04-0.4-0.08-0.61-0.12 		c7.34,6.23,16.48,9.51,26.54,9.51c22.86,0,41.46-18.6,41.46-41.46c0-4.06-0.58-8.05-1.73-11.89L110.65,380.97z" class="st1"></path> 	<path d="M180.75,239.5c-2.87,2.61-6.25,4.93-9.78,6.77c0.38,0.92,1.34,1.66,2.51,1.89c1.03,0.2,2.23,0.06,3.64-0.43 		c1.19-0.42,4.03-1.66,4.74-4.25C182.27,241.97,181.75,240.23,180.75,239.5z" class="st1"></path> 	<path d="M117.68,230.18c-1.27-8.08-0.77-21.5-0.13-31.33c0.29-4.49,1.37-8.2,3.37-11.65c-0.05-0.13-0.09-0.27-0.13-0.4 		c-0.09-0.28-0.17-0.56-0.24-0.85c-0.05-0.2-0.1-0.4-0.14-0.61c-0.06-0.31-0.11-0.62-0.15-0.93c-0.03-0.2-0.06-0.39-0.08-0.6 		c-0.04-0.36-0.05-0.73-0.06-1.1c0-0.16-0.02-0.32-0.02-0.49c0-0.03,0-0.05,0-0.08c-2.57,3.35-4.21,7.34-4.68,11.4 		c-0.14,1.21-0.18,2.46-0.23,3.68c-0.08,2.21-0.16,4.49-0.8,6.66c-0.4,1.37-1.02,2.66-1.61,3.92c-0.57,1.2-1.16,2.44-1.54,3.72 		c-1.34,4.47-0.15,9.4,1.08,13.66c0.25,0.87,0.5,1.77,0.75,2.69c1.29,4.7,2.63,9.55,4.97,13.41c4.02,6.63,9.07,8.11,14.21,8.6 		c0-0.72,0-1.24-0.01-1.55C129.87,247.72,119.9,244.34,117.68,230.18z" class="st1"></path> 	<path d="M124.78,191.18c4.05,3.41,10,2.78,15.83,1.59c2.18-0.45,4.5-0.88,6.8-1.06l-0.01-0.02l0.63-0.03l0.41-0.02 		l0,0.01c3.7-0.14,6.65,0.58,8.97,2.21c2.56,1.8,4.14,4.57,5.66,7.25l0.58,1.01c1.61,2.78,3.67,5.77,6.79,6.85l-0.33,0.97 		c-3.44-1.18-5.64-4.36-7.34-7.3l-0.58-1.02c-1.47-2.58-2.98-5.25-5.36-6.92c-2.09-1.47-4.76-2.13-8.14-2.04 		c0.01,0.06,0.02,0.13,0.03,0.19c0.02,0.11,0.03,0.22,0.05,0.32c0.03,0.19,0.05,0.38,0.07,0.57c0.01,0.11,0.02,0.21,0.03,0.32 		c0.02,0.21,0.03,0.41,0.04,0.62c0,0.09,0.01,0.18,0.01,0.27c0.01,0.28,0.02,0.56,0.03,0.84c0.04,1.47,0.08,2.85,0.56,4.13 		c0.85,2.27,2.87,3.76,5.01,5.34c2.18,1.6,4.43,3.26,5.37,5.84c0.97,2.64,0.26,5.4-0.43,8.06c-0.31,1.21-0.63,2.46-0.78,3.66 		c-0.54,4.24,1.07,8.67,4.2,11.58c2.43,2.26,5.77,3.57,9.17,3.59l-0.01,1.02c-1.68-0.01-3.34-0.33-4.91-0.89l-0.42,9 		c5.99-2.43,11.92-6.47,16.05-11.09c1.48-1.65,2.65-6.08,3.42-9c0.2-0.77,0.39-1.47,0.55-2.02c0.85-2.87,0.64-5.84-0.55-8.14 		c-0.33-0.63-0.75-1.25-1.15-1.85c-0.77-1.14-1.57-2.31-1.87-3.72c-0.39-1.8,0.12-3.56,0.6-5.27c0.43-1.53,0.85-2.97,0.66-4.42 		c-0.31-2.46-2.27-4.38-4.17-6.23l-0.3-0.3c-1.83-1.79-4.21-4.53-3.8-7.66l0.22-1.82c0.09-3.12-3.04-5.49-5.74-6.56 		c-1.06-0.42-2.19-0.75-3.28-1.07c-2.08-0.62-4.23-1.25-6.09-2.5c-1.66-1.12-2.96-2.65-4.22-4.13c-0.64-0.75-1.3-1.52-1.99-2.23 		c-4.97-5.04-12.59-7.09-19.41-5.22c-6.82,1.86-12.35,7.5-14.07,14.36c-0.19,0.77-0.33,1.58-0.41,2.41 		c-0.05,0.54-0.08,1.08-0.08,1.61C121.13,185.95,122.45,189.21,124.78,191.18z" class="st1"></path> 	<path d="M105.3,324.07l4.08,27.16c1.16-0.97,2.62-1.46,4.13-1.37l3.67,0.21l5.37-4.82l0.94-32.78l2.17-49.25l2.22-1.37 		l-4.55,2.23c-0.02,0.06-0.04,0.11-0.07,0.17l-0.51,1.18c-0.42,0.96-1.06,2.45-1.82,4.42c-0.68,1.75-1.56,4.11-2.36,6.87 		c-0.67,2.38-1.25,7.66-1.35,8.71l3.73,2.98l-3.77,1.59c-0.03,0.57-0.05,1.08-0.07,1.68c-0.22,8.3,0.69,16.61,2.49,22.81 		c0.15,0.6,0.33,1.15,0.51,1.69l0.11,0.32c0.08,0.23,0.15,0.45,0.22,0.68c0.12,0.38,0.24,0.74,0.37,1.08 		c0.17,0.4,0.33,0.8,0.48,1.17c0.24,0.61,0.45,1.14,0.67,1.59l0.84,1.71c0.34,0.71,0.45,0.93,0.12,1.11l-0.13,0.07l-0.15-0.04 		c-0.18-0.05-0.22-0.12-0.58-0.76l-0.91-1.69c-0.26-0.51-0.5-1.08-0.78-1.74c-0.14-0.33-0.29-0.69-0.45-1.06 		c-0.15-0.36-0.28-0.75-0.42-1.15c-0.07-0.22-0.15-0.44-0.23-0.66l-0.11-0.32c-0.19-0.55-0.39-1.12-0.55-1.73 		c-1.9-6.26-2.86-14.69-2.64-23.1c0.03-0.71,0.05-1.41,0.1-2.11l0.02-0.35l0.33-0.14c0.55-0.23,1.07-0.44,1.58-0.64 		c0.31-0.12,0.61-0.24,0.92-0.37c-0.37-0.28-0.74-0.54-1.09-0.79c-0.5-0.36-1.02-0.73-1.54-1.14l-0.2-0.16l-0.01-0.25 		c-0.15-3.39,0.65-6.45,1.48-9.3c0.87-2.9,1.83-5.35,2.48-6.94c0.82-2.01,1.51-3.51,1.94-4.42c0.07-0.15,0.13-0.27,0.19-0.39 		l-8.73,4.29l-4.25,13.97L105.3,324.07z" class="st1"></path> 	<path d="M108.47,352l-4.19-27.9l0.01-0.06l3.88-41.35l3.87-12.72c-2.89,2.33-10.02,8.97-12.22,19.09 		c-2.2,10.15-8.29,64.05-8.35,64.6l-0.05,0.18l-0.83,1.62l8.75,4.27L108.47,352z" class="st1"></path> 	<path d="M124.51,312.51l-0.91,31.8l13.3-11.93c0.6-0.54,1.5-0.57,2.14-0.08c0.82,0.63,0.88,1.85,0.12,2.55 		l-16.66,15.52l4.84,0.28c1.38,0.08,2.7,0.65,3.71,1.6l7.5,7.06l7.39,1.68l-0.08-0.68l12.61-1.86l-1.97-33.1l0.01-0.06l11.62-60.64 		c0.52-2.7-0.5-5.19-1.86-7.67l-0.22,4.66l0.64-0.73l-0.7,2.17c-0.01,0.13-0.05,0.24-0.11,0.33c-0.54,1.5-5.82,15.19-19.31,15.19 		c-2.18,0-4.58-0.36-7.21-1.18c-3.47-1.09-5.74-4.52-6.74-10.17l-0.11-0.4c-0.08-0.5-0.08-0.5-0.12-1.12 		c-0.24-1.87-0.32-3.7-0.32-5.26l-5.42,3.34L124.51,312.51z" class="st1"></path> 	<path d="M165.63,248.64c-1.4,0.51-2.8,0.93-4.17,1.25c-5.42,1.24-10.95,1.62-15.99,1.62c-2.44,0-4.75-0.09-6.89-0.21 		c-1.62,0.18-3.39,0.22-5.32,0.08c0.01,1.19,0.02,2.69,0.04,4.57c0,0.06-0.14,1.38-0.19,3.33c0.14,0.08,0.29,0.18,0.48,0.28 		c0.95,0.52,1.98,0.91,3.08,1.15c1.43,0.33,3.13,0.41,4.93,0.25c2.07-0.18,4.35-0.69,6.11-1.12l1.7-0.42 		c1.57-0.39,3.06-0.76,4.48-1.04c1.89-0.38,3.7-0.61,5.23-0.66c1.6-0.06,2.83,0.07,3.59,0.19c0.43,0.07,0.76,0.14,0.98,0.19 		c0.3,0.07,0.8,0.2,0.69,0.71c-0.1,0.47-0.52,0.42-1,0.36c-0.2-0.02-0.48-0.06-0.82-0.09c-1.09-0.1-2.23-0.12-3.38-0.06 		c-1.47,0.08-3.2,0.33-5.01,0.72c-1.27,0.27-2.61,0.6-4.02,0.96c-0.69,0.17-1.39,0.35-2.1,0.52c-1.79,0.44-4.13,0.96-6.33,1.13 		c-0.54,0.04-1.07,0.07-1.6,0.07c-1.35,0-2.63-0.15-3.75-0.43c-1.48-0.36-2.57-0.91-3.27-1.34c0.01,1.51,0.08,3.24,0.31,5 		c0.04,0.61,0.04,0.61,0.1,1.01l0.1,0.38c0.94,5.3,2.97,8.45,6.04,9.42c17.81,5.6,24.36-10.86,25.19-13.22l-0.08-0.12l0.18-0.22 		L165.63,248.64z" class="st1"></path> 	<path d="M133.1,247.53c2.2,0.05,11.46-0.11,20.65-5.61c0,0-2.96,6.05-11,8.51c5.67,0.14,12.16-0.1,18.49-1.55 		c1.46-0.34,2.96-0.79,4.45-1.35l0.46-9.82c-1.45-0.64-2.8-1.5-3.95-2.57c-3.36-3.13-5.1-7.9-4.52-12.46 		c0.16-1.27,0.49-2.55,0.81-3.79c0.68-2.63,1.31-5.11,0.45-7.45c-0.84-2.28-2.87-3.78-5.01-5.37c-1.1-0.81-2.21-1.63-3.17-2.58 		c-0.78,0.07-2.49-0.44-4.55-0.65c-2.55-0.31-4.73-0.04-4.94-0.63c-0.09-0.28,0.38-0.75,1.32-1.12c0.93-0.38,2.34-0.62,3.87-0.45 		c1.01,0.11,1.9,0.4,2.64,0.73c-0.2-0.35-0.39-0.72-0.53-1.11c-0.54-1.44-0.58-2.97-0.63-4.46c-0.01-0.29-0.02-0.57-0.03-0.85 		c0-0.09-0.01-0.17-0.01-0.26c-0.01-0.2-0.02-0.39-0.04-0.59c-0.01-0.1-0.02-0.2-0.03-0.31c-0.02-0.18-0.04-0.35-0.06-0.52 		c-0.02-0.11-0.03-0.21-0.05-0.32c-0.02-0.09-0.04-0.17-0.05-0.26c-0.27,0.02-0.55,0.04-0.82,0.07c-0.25,0.02-0.5,0.04-0.76,0.08 		c-0.36,0.04-0.72,0.1-1.08,0.15c-0.24,0.03-0.47,0.07-0.71,0.1c-0.4,0.07-0.79,0.14-1.19,0.21c-0.19,0.04-0.39,0.07-0.58,0.1 		c-0.58,0.11-1.15,0.23-1.72,0.34c-0.6,0.12-1.19,0.24-1.79,0.34c-0.1,0.02-0.2,0.04-0.3,0.05c-0.57,0.1-1.14,0.19-1.71,0.27 		c-0.12,0.02-0.23,0.03-0.35,0.05c-0.57,0.07-1.14,0.13-1.7,0.18c-0.1,0.01-0.19,0.01-0.29,0.02c-0.59,0.04-1.18,0.07-1.75,0.07 		c0,0-0.01,0-0.01,0c-0.05,0-0.1,0-0.15,0c-0.33,0-0.66-0.01-0.99-0.03c-0.14-0.01-0.27-0.02-0.4-0.03 		c-0.24-0.02-0.49-0.04-0.73-0.07c-0.15-0.02-0.3-0.04-0.45-0.06c-0.22-0.03-0.44-0.07-0.66-0.11c-0.15-0.03-0.3-0.06-0.45-0.1 		c-0.21-0.05-0.42-0.1-0.63-0.16c-0.15-0.04-0.3-0.08-0.44-0.13c-0.21-0.06-0.41-0.14-0.61-0.21c-0.14-0.05-0.28-0.11-0.42-0.16 		c-0.21-0.09-0.41-0.18-0.61-0.28c-0.13-0.06-0.26-0.12-0.38-0.19c-0.22-0.12-0.43-0.25-0.64-0.38c-0.1-0.06-0.21-0.12-0.31-0.19 		c-0.31-0.21-0.61-0.43-0.9-0.68c-0.35-0.29-0.67-0.61-0.97-0.95c-0.1-0.11-0.19-0.24-0.28-0.35c-0.2-0.24-0.39-0.48-0.56-0.74 		c-0.1-0.15-0.19-0.31-0.29-0.47c-0.15-0.24-0.29-0.49-0.43-0.75c-0.05-0.1-0.11-0.2-0.16-0.3c-1.67,3.12-2.59,6.48-2.85,10.51 		c-0.64,9.78-1.13,23.12,0.12,31.11c2.38,15.21,13.66,17.31,14.14,17.39C132.96,247.41,133.04,247.46,133.1,247.53z" class="st1"></path> 	<path d="M120.94,382.54c0.18,0.64,0.35,1.28,0.5,1.92l0.05-1.83L120.94,382.54z" class="st1"></path> 	<path d="M177.46,248.7c-1.11,0.39-2.11,0.58-3.02,0.58c-0.4,0-0.78-0.04-1.15-0.11c-0.7-0.14-1.35-0.43-1.89-0.83 		c-0.87,1.56-1.54,3.29-2,5.16l11.89,6.89l13.17,5.37l3.06,1.19c8.01,3.1,13.93,9.95,15.83,18.33c2.01,8.88,4.52,18.79,6.94,28.37 		c0.47,1.85,0.94,3.7,1.4,5.52c4.16-6.76,5.32-15.08,6.34-22.45c1.14-8.23-0.18-13.2-4.04-15.19c-0.94-0.48-1.97-0.74-3.07-1.01 		c-1.34-0.33-2.73-0.67-3.93-1.47c-2.84-1.9-3.45-5.37-4.05-8.73c-0.56-3.15-1.08-6.12-3.26-7.94c-1.85-1.54-4.31-1.73-6.92-1.93 		c-2.01-0.15-4.08-0.32-5.93-1.13c-3.17-1.39-5.09-4.35-6.94-7.21c-0.65-1.01-1.33-2.05-2.04-2.99c-1.41-1.86-3.54-3.38-5.58-4.02 		C181.35,246.65,179.68,247.92,177.46,248.7z" class="st1"></path> 	<polygon points="191.38,340.02 189.84,353.84 193.75,353.26" class="st1"></polygon> 	<path d="M161.81,382.93c0.6,0.03,1.21,0.06,1.84,0.09L161.81,382.93L161.81,382.93z" class="st1"></path> 	<path d="M161.94,383.96l3.57,28.62h1.75v0.02h39.05l-11.61-27.32C183.96,384.98,171.22,384.41,161.94,383.96z" class="st1"></path> 	<path d="M166.68,248.24l-0.17,3.6l1.97,1.14c0.49-1.94,1.21-3.73,2.14-5.35c-0.23-0.27-0.42-0.57-0.56-0.89 		C168.94,247.29,167.81,247.79,166.68,248.24z" class="st1"></path> 	<path d="M160.78,382.88L160.78,382.88l-0.25-0.01C160.61,382.87,160.69,382.87,160.78,382.88z" class="st1"></path> 	<path d="M138.87,360.43c0.56,0.6,1.36,1.52,2.18,2.63c1.48,1.98,2.45,3.74,2.36,3.79c-0.1,0.06-1.21-1.59-2.68-3.56 		c-0.93-1.24-1.77-2.32-2.24-2.96l-0.43-0.1l-0.1-0.09l-7.6-7.16c-0.84-0.79-1.93-1.26-3.07-1.32l-13.83-0.8 		c-1.25-0.06-2.47,0.33-3.43,1.14l-9.29,7.85l5.86,2.86c0.4-0.23,1.01-0.61,1.75-1.16c0.66-0.49,1.42-1.12,2.29-1.79 		c0.87-0.67,1.86-1.41,3.04-1.94c1.18-0.56,2.42-0.75,3.53-0.79c1.12-0.03,2.11,0.09,2.93,0.22c0.82,0.13,1.48,0.28,1.93,0.4 		c0.45,0.11,0.7,0.19,0.69,0.21c-0.01,0.06-1.03-0.12-2.66-0.33c-1.61-0.18-3.99-0.4-6.26,0.65c-1.13,0.51-2.11,1.22-2.99,1.87 		c-0.87,0.66-1.66,1.27-2.35,1.73c-0.69,0.47-1.29,0.8-1.71,1c-0.02,0.01-0.03,0.01-0.04,0.02l9.87,4.81 		c0.15-0.12,0.33-0.25,0.52-0.39c0.77-0.55,1.89-1.3,3.28-1.81c1.39-0.51,2.78-0.59,3.73-0.4c0.96,0.18,1.47,0.53,1.45,0.56 		c-0.03,0.06-0.57-0.19-1.49-0.28c-0.92-0.11-2.22,0-3.56,0.5c-1.34,0.49-2.45,1.18-3.26,1.67c-0.16,0.1-0.3,0.19-0.44,0.27 		l26.21,12.78l5.19,0.46L145.76,362L138.87,360.43z" class="st1"></path> 	<path d="M222.02,320.54c0.04-0.06,0.08-0.12,0.12-0.18c4.61-7.06,5.82-15.8,6.89-23.51c1.21-8.72-0.29-14.03-4.58-16.24 		c-1.05-0.54-2.19-0.82-3.3-1.09c-1.31-0.32-2.56-0.63-3.61-1.33c-2.47-1.65-3.02-4.76-3.61-8.05c-0.56-3.19-1.15-6.49-3.62-8.54 		c-2.1-1.75-4.84-1.96-7.49-2.16c-1.92-0.15-3.91-0.3-5.6-1.04c-2.89-1.27-4.64-3.97-6.49-6.83c-0.66-1.02-1.35-2.08-2.09-3.06 		c-1.52-2.01-3.74-3.62-5.95-4.34c0.05-0.14,0.11-0.27,0.15-0.42c0.46-1.7,0-3.85-1.34-4.94c0.71-0.68,1.4-1.38,2.03-2.09 		c1.64-1.84,2.8-6.22,3.65-9.42c0.2-0.76,0.38-1.45,0.54-2c0.92-3.12,0.69-6.36-0.63-8.9c-0.36-0.68-0.79-1.33-1.21-1.95 		c-0.75-1.11-1.46-2.15-1.72-3.36c-0.33-1.55,0.11-3.11,0.59-4.78c0.44-1.56,0.9-3.18,0.69-4.83c-0.36-2.82-2.54-4.95-4.47-6.83 		l-0.3-0.29c-1.81-1.78-3.85-4.15-3.5-6.8l0.23-1.87c0.11-3.7-3.37-6.4-6.38-7.58c-1.1-0.43-2.25-0.77-3.36-1.1 		c-2.1-0.62-4.08-1.21-5.81-2.37c-1.55-1.04-2.75-2.45-4.02-3.94c-0.65-0.76-1.32-1.55-2.04-2.28c-5.22-5.29-13.23-7.45-20.41-5.49 		c-7.17,1.96-12.98,7.88-14.79,15.1c-0.19,0.77-0.33,1.57-0.42,2.39c-3.2,3.71-5.25,8.32-5.79,13.02c-0.14,1.25-0.19,2.52-0.23,3.76 		c-0.08,2.24-0.15,4.36-0.76,6.41c-0.38,1.29-0.98,2.55-1.56,3.77c-0.59,1.24-1.2,2.51-1.6,3.86c-1.42,4.74-0.19,9.83,1.07,14.24 		c0.25,0.87,0.5,1.77,0.75,2.68c1.25,4.54,2.66,9.69,5.08,13.67c4.27,7.05,9.79,8.59,15.09,9.1c0.01,1.24,0.02,2.89,0.04,4.99 		c-0.01,0.09-0.12,1.15-0.18,2.75l-19.55,9.6l-0.01,0.04c-1.34,0.95-11.06,8.26-13.73,20.55c-2.17,10-8.07,62.05-8.36,64.61 		l-0.8,1.56l-1.37-0.67l-58.2-0.74l35.31,13.08c-0.78,1.12-1.65,2.38-2.52,3.66c-0.92-1.61-2.04-2.86-3.51-3.85 		c-1.35-0.9-3.19-1.29-4.27-0.11c-0.57,0.62-0.76,1.56-0.51,2.54c0.18,0.71,0.54,1.32,0.89,1.91l0.11,0.19 		c1.22,2.09,2.05,4.01,2.69,6.17c-0.57,0.86-0.95,1.43-1.02,1.54c-0.07,0.11-1.74,2.86-0.53,5.56c0.89,1.97,2.99,2.14,4.36,1.91 		c0.16,0.83,0.7,2.28,2.46,3.26c2.38,1.32,5.32,0.19,6.06-0.13l12.58,2.83l4.67-0.47c0.12-0.01,0.23-0.04,0.35-0.05l0,0.01 		c0.61,0.04,1.22,0.06,1.83,0.06c5.48,0,10.86-1.74,15.32-4.97l3.88-2.81c-1.84,6.2-4.05,13.22-5.53,16.56 		c-3.86,8.71-9.85,19.29-22.04,23.87c-5.44,2.04-11.79,2.71-18.98,2.05c5.28-1.58,9.14-6.47,9.14-12.25 		c0-7.05-5.74-12.79-12.79-12.79c-7.05,0-12.79,5.74-12.79,12.79c0,4.25,2.09,8.01,5.29,10.34c-7.44-1.83-15.6-4.79-24.46-8.92 		c0,0-0.33,0.09-0.44,0.33c-0.12,0.25,0.01,0.6,0.01,0.6c9.4,4.38,18.03,7.47,25.87,9.28c7.75,7.18,17.64,10.98,28.59,10.98 		c23.42,0,42.48-19.06,42.48-42.48c0-1.64-0.1-3.27-0.28-4.88l0.02,0l0.19-6.6l35.16,5.38l-13.41-6.54l4.32,0.4l0.16,1.26l0.43,0.02 		c0.6,0.03,4.5,0.25,10.14,0.52c0.52,0.03,1.05,0.05,1.6,0.08l3.57,28.67h-16v1.02h16.13l0,0.02h43.25l-12.04-28.32 		c4.03,0.1,7.75,0.17,10.85,0.17c4.1,0,7.11-0.11,8.34-0.38c9.04-2,14.97-12.73,14.77-26.69 		C229.69,351.72,226.15,336.98,222.02,320.54z M187.84,249.12c0.71,0.94,1.39,1.99,2.04,2.99c1.85,2.86,3.77,5.82,6.94,7.21 		c1.86,0.81,3.93,0.97,5.93,1.13c2.61,0.2,5.07,0.39,6.92,1.93c2.18,1.81,2.71,4.79,3.26,7.94c0.59,3.36,1.21,6.83,4.05,8.73 		c1.2,0.8,2.59,1.14,3.93,1.47c1.1,0.27,2.13,0.53,3.07,1.01c3.86,1.99,5.18,6.96,4.04,15.19c-1.02,7.37-2.19,15.69-6.34,22.45 		c-0.46-1.83-0.93-3.67-1.4-5.52c-2.42-9.58-4.93-19.49-6.94-28.37c-1.9-8.37-7.82-15.22-15.83-18.33l-3.06-1.19l-13.17-5.37 		l-11.89-6.89c0.45-1.88,1.12-3.61,2-5.16c0.54,0.39,1.19,0.69,1.89,0.83c0.37,0.07,0.75,0.11,1.15,0.11c0.92,0,1.92-0.19,3.02-0.58 		c2.22-0.77,3.89-2.05,4.8-3.6C184.29,245.74,186.43,247.26,187.84,249.12z M168.48,252.97l-1.97-1.14l0.17-3.6 		c1.13-0.45,2.26-0.95,3.38-1.5c0.14,0.32,0.33,0.61,0.56,0.89C169.69,249.24,168.97,251.03,168.48,252.97z M181.86,243.48 		c-0.7,2.59-3.55,3.84-4.74,4.25c-1.41,0.49-2.61,0.63-3.64,0.43c-1.17-0.23-2.13-0.96-2.51-1.89c3.53-1.84,6.91-4.17,9.78-6.77 		C181.75,240.23,182.27,241.97,181.86,243.48z M121.19,180.66c0.08-0.83,0.22-1.64,0.41-2.41c1.72-6.86,7.24-12.5,14.07-14.36 		c6.82-1.86,14.44,0.19,19.41,5.22c0.69,0.7,1.35,1.48,1.99,2.23c1.26,1.48,2.56,3.01,4.22,4.13c1.86,1.25,4.01,1.89,6.09,2.5 		c1.09,0.32,2.22,0.66,3.28,1.07c2.7,1.06,5.83,3.43,5.74,6.56l-0.22,1.82c-0.41,3.13,1.97,5.87,3.8,7.66l0.3,0.3 		c1.89,1.85,3.85,3.76,4.17,6.23c0.18,1.45-0.23,2.89-0.66,4.42c-0.49,1.71-0.99,3.47-0.6,5.27c0.3,1.4,1.1,2.58,1.87,3.72 		c0.41,0.6,0.83,1.22,1.15,1.85c1.2,2.3,1.4,5.27,0.55,8.14c-0.16,0.56-0.35,1.25-0.55,2.02c-0.77,2.93-1.95,7.35-3.42,9 		c-4.14,4.62-10.06,8.66-16.05,11.09l0.42-9c1.57,0.56,3.23,0.88,4.91,0.89l0.01-1.02c-3.4-0.03-6.75-1.34-9.17-3.59 		c-3.13-2.91-4.74-7.34-4.2-11.58c0.15-1.21,0.47-2.46,0.78-3.66c0.69-2.66,1.39-5.42,0.43-8.06c-0.94-2.57-3.19-4.23-5.37-5.84 		c-2.14-1.58-4.16-3.07-5.01-5.34c-0.48-1.28-0.52-2.66-0.56-4.13c-0.01-0.28-0.02-0.56-0.03-0.84c0-0.09-0.01-0.18-0.01-0.27 		c-0.01-0.21-0.02-0.41-0.04-0.62c-0.01-0.11-0.02-0.21-0.03-0.32c-0.02-0.19-0.04-0.38-0.07-0.57c-0.02-0.11-0.03-0.22-0.05-0.32 		c-0.01-0.06-0.02-0.13-0.03-0.19c3.38-0.09,6.05,0.57,8.14,2.04c2.38,1.67,3.89,4.34,5.36,6.92l0.58,1.02 		c1.7,2.95,3.9,6.12,7.34,7.3l0.33-0.97c-3.12-1.07-5.18-4.06-6.79-6.85l-0.58-1.01c-1.52-2.68-3.1-5.45-5.66-7.25 		c-2.32-1.63-5.27-2.35-8.97-2.21l0-0.01l-0.41,0.02l-0.63,0.03l0.01,0.02c-2.31,0.18-4.62,0.61-6.8,1.06 		c-5.83,1.19-11.78,1.82-15.83-1.59c-2.33-1.97-3.65-5.23-3.67-8.92C121.11,181.73,121.14,181.2,121.19,180.66z M118.03,241.27 		c-2.34-3.86-3.67-8.72-4.97-13.41c-0.25-0.92-0.5-1.81-0.75-2.69c-1.22-4.26-2.41-9.19-1.08-13.66c0.38-1.27,0.97-2.52,1.54-3.72 		c0.6-1.25,1.21-2.55,1.61-3.92c0.64-2.18,0.72-4.46,0.8-6.66c0.04-1.21,0.09-2.47,0.23-3.68c0.46-4.05,2.11-8.04,4.68-11.4 		c0,0.03,0,0.05,0,0.08c0,0.17,0.02,0.32,0.02,0.49c0.01,0.37,0.03,0.74,0.06,1.1c0.02,0.2,0.05,0.4,0.08,0.6 		c0.04,0.31,0.09,0.63,0.15,0.93c0.04,0.21,0.09,0.41,0.14,0.61c0.07,0.29,0.15,0.57,0.24,0.85c0.04,0.13,0.08,0.27,0.13,0.4 		c-2,3.45-3.08,7.16-3.37,11.65c-0.64,9.83-1.14,23.25,0.13,31.33c2.22,14.16,12.19,17.54,14.55,18.14c0,0.32,0,0.84,0.01,1.55 		C127.1,249.37,122.04,247.9,118.03,241.27z M118.69,230.02c-1.25-7.99-0.75-21.33-0.12-31.11c0.26-4.03,1.18-7.39,2.85-10.51 		c0.05,0.1,0.1,0.2,0.16,0.3c0.13,0.26,0.28,0.5,0.43,0.75c0.1,0.16,0.19,0.32,0.29,0.47c0.18,0.26,0.37,0.5,0.56,0.74 		c0.1,0.12,0.18,0.24,0.28,0.35c0.31,0.34,0.63,0.66,0.97,0.95c0.29,0.25,0.59,0.47,0.9,0.68c0.1,0.07,0.21,0.13,0.31,0.19 		c0.21,0.13,0.42,0.26,0.64,0.38c0.13,0.07,0.25,0.13,0.38,0.19c0.2,0.1,0.4,0.2,0.61,0.28c0.14,0.06,0.28,0.11,0.42,0.16 		c0.2,0.08,0.41,0.15,0.61,0.21c0.15,0.05,0.29,0.09,0.44,0.13c0.21,0.06,0.42,0.11,0.63,0.16c0.15,0.03,0.3,0.07,0.45,0.1 		c0.22,0.04,0.44,0.08,0.66,0.11c0.15,0.02,0.3,0.05,0.45,0.06c0.24,0.03,0.48,0.05,0.73,0.07c0.13,0.01,0.27,0.02,0.4,0.03 		c0.33,0.02,0.66,0.03,0.99,0.03c0.05,0,0.1,0,0.15,0c0,0,0.01,0,0.01,0c0.58,0,1.16-0.03,1.75-0.07c0.1-0.01,0.19-0.01,0.29-0.02 		c0.56-0.04,1.13-0.11,1.7-0.18c0.12-0.01,0.23-0.03,0.35-0.05c0.57-0.08,1.14-0.17,1.71-0.27c0.1-0.02,0.2-0.04,0.3-0.05 		c0.6-0.11,1.2-0.22,1.79-0.34c0.56-0.12,1.14-0.23,1.72-0.34c0.19-0.04,0.39-0.07,0.58-0.1c0.39-0.07,0.79-0.15,1.19-0.21 		c0.24-0.04,0.47-0.07,0.71-0.1c0.36-0.05,0.72-0.11,1.08-0.15c0.25-0.03,0.5-0.05,0.76-0.08c0.27-0.03,0.55-0.05,0.82-0.07 		c0.02,0.09,0.04,0.17,0.05,0.26c0.02,0.11,0.04,0.21,0.05,0.32c0.02,0.17,0.05,0.35,0.06,0.52c0.01,0.1,0.02,0.2,0.03,0.31 		c0.02,0.19,0.03,0.39,0.04,0.59c0,0.09,0.01,0.17,0.01,0.26c0.01,0.28,0.02,0.56,0.03,0.85c0.04,1.48,0.09,3.02,0.63,4.46 		c0.15,0.39,0.33,0.76,0.53,1.11c-0.74-0.34-1.64-0.62-2.64-0.73c-1.53-0.17-2.94,0.07-3.87,0.45c-0.94,0.38-1.41,0.84-1.32,1.12 		c0.21,0.59,2.39,0.32,4.94,0.63c2.05,0.21,3.77,0.73,4.55,0.65c0.96,0.95,2.07,1.77,3.17,2.58c2.15,1.58,4.18,3.08,5.01,5.37 		c0.86,2.34,0.22,4.83-0.45,7.45c-0.32,1.24-0.65,2.52-0.81,3.79c-0.58,4.56,1.16,9.33,4.52,12.46c1.15,1.07,2.5,1.93,3.95,2.57 		l-0.46,9.82c-1.49,0.56-2.99,1.02-4.45,1.35c-6.32,1.45-12.81,1.69-18.49,1.55c8.03-2.46,11-8.51,11-8.51 		c-9.19,5.5-18.44,5.66-20.65,5.61c-0.06-0.07-0.14-0.12-0.27-0.12C132.35,247.33,121.07,245.23,118.69,230.02z M164.86,263.22 		c-0.84,2.37-7.38,18.82-25.19,13.22c-3.08-0.97-5.11-4.12-6.04-9.42l-0.1-0.38c-0.06-0.41-0.06-0.41-0.1-1.01 		c-0.23-1.76-0.3-3.5-0.31-5c0.7,0.43,1.79,0.98,3.27,1.34c1.12,0.28,2.4,0.43,3.75,0.43c0.52,0,1.06-0.02,1.6-0.07 		c2.2-0.17,4.54-0.69,6.33-1.13c0.72-0.17,1.42-0.35,2.1-0.52c1.42-0.36,2.75-0.69,4.02-0.96c1.81-0.39,3.54-0.64,5.01-0.72 		c1.15-0.07,2.29-0.05,3.38,0.06c0.34,0.03,0.61,0.07,0.82,0.09c0.48,0.06,0.9,0.11,1-0.36c0.11-0.51-0.39-0.63-0.69-0.71 		c-0.22-0.06-0.55-0.12-0.98-0.19c-0.76-0.12-1.99-0.25-3.59-0.19c-1.53,0.05-3.34,0.28-5.23,0.66c-1.42,0.28-2.91,0.65-4.48,1.04 		l-1.7,0.42c-1.76,0.43-4.04,0.94-6.11,1.12c-1.8,0.16-3.5,0.08-4.93-0.25c-1.09-0.24-2.13-0.63-3.08-1.15 		c-0.18-0.1-0.34-0.2-0.48-0.28c0.04-1.95,0.18-3.27,0.19-3.33c-0.02-1.88-0.03-3.38-0.04-4.57c1.93,0.15,3.7,0.11,5.32-0.08 		c2.14,0.12,4.46,0.21,6.89,0.21c5.04,0,10.57-0.37,15.99-1.62c1.37-0.32,2.77-0.74,4.17-1.25l-0.66,14.25l-0.18,0.22L164.86,263.22 		z M132.4,265.73c0.04,0.62,0.04,0.62,0.12,1.12l0.11,0.4c1,5.66,3.26,9.08,6.74,10.17c2.63,0.83,5.03,1.18,7.21,1.18 		c13.49,0,18.77-13.69,19.31-15.19c0.06-0.09,0.1-0.2,0.11-0.33l0.7-2.17l-0.64,0.73l0.22-4.66c1.37,2.48,2.38,4.98,1.86,7.67 		l-11.62,60.64l-0.01,0.06l1.97,33.1l-12.61,1.86l0.08,0.68l-7.39-1.68l-7.5-7.06c-1.01-0.95-2.33-1.52-3.71-1.6l-4.84-0.28 		l16.66-15.52c0.76-0.71,0.7-1.92-0.12-2.55c-0.64-0.49-1.54-0.46-2.14,0.08l-13.3,11.93l0.91-31.8l2.14-48.7l5.42-3.34 		C132.08,262.03,132.16,263.86,132.4,265.73z M113.4,268.97l8.73-4.29c-0.06,0.13-0.12,0.24-0.19,0.39 		c-0.43,0.9-1.12,2.41-1.94,4.42c-0.65,1.59-1.6,4.03-2.48,6.94c-0.83,2.85-1.62,5.91-1.48,9.3l0.01,0.25l0.2,0.16 		c0.52,0.42,1.04,0.79,1.54,1.14c0.36,0.25,0.72,0.51,1.09,0.79c-0.31,0.13-0.61,0.25-0.92,0.37c-0.51,0.21-1.03,0.41-1.58,0.64 		l-0.33,0.14l-0.02,0.35c-0.05,0.7-0.07,1.4-0.1,2.11c-0.22,8.41,0.74,16.84,2.64,23.1c0.16,0.62,0.36,1.19,0.55,1.73l0.11,0.32 		c0.08,0.22,0.16,0.44,0.23,0.66c0.14,0.4,0.27,0.78,0.42,1.15c0.16,0.37,0.31,0.72,0.45,1.06c0.28,0.66,0.52,1.24,0.78,1.74 		l0.91,1.69c0.36,0.64,0.39,0.71,0.58,0.76l0.15,0.04l0.13-0.07c0.33-0.19,0.23-0.4-0.12-1.11l-0.84-1.71 		c-0.22-0.45-0.43-0.98-0.67-1.59c-0.15-0.37-0.31-0.76-0.48-1.17c-0.13-0.34-0.25-0.71-0.37-1.08c-0.07-0.22-0.15-0.45-0.22-0.68 		l-0.11-0.32c-0.18-0.53-0.36-1.08-0.51-1.69c-1.8-6.2-2.71-14.51-2.49-22.81c0.02-0.6,0.04-1.11,0.07-1.68l3.77-1.59l-3.73-2.98 		c0.1-1.05,0.68-6.33,1.35-8.71c0.8-2.76,1.69-5.12,2.36-6.87c0.77-1.97,1.41-3.46,1.82-4.42l0.51-1.18 		c0.03-0.06,0.05-0.12,0.07-0.17l4.55-2.23l-2.22,1.37l-2.17,49.25l-0.94,32.78l-5.37,4.82l-3.67-0.21 		c-1.51-0.09-2.97,0.4-4.13,1.37l-4.08-27.16l3.85-41.13L113.4,268.97z M91.41,353.83l0.05-0.18c0.06-0.54,6.15-54.45,8.35-64.6 		c2.2-10.12,9.33-16.75,12.22-19.09l-3.87,12.72l-3.88,41.35l-0.01,0.06l4.19,27.9l-9.14,7.72l-8.75-4.27L91.41,353.83z 		 M79.66,371.96l5.94,2.2l-2.14-0.02c-0.78-0.76-1.87-1.37-3.09-1.71c-0.32-0.09-0.64-0.11-0.96-0.05 		C79.5,372.23,79.58,372.1,79.66,371.96z M73.03,369.5c-0.9,1.07-1.81,2.22-2.68,3.35c0.67-1.27,1.34-2.54,1.9-3.64L73.03,369.5z 		 M56.47,370.5l-0.11-0.19c-0.33-0.55-0.63-1.08-0.78-1.64c-0.12-0.49-0.12-1.17,0.27-1.6c0.71-0.77,2.15-0.26,2.94,0.27 		c1.47,0.98,2.56,2.25,3.44,3.94c-1.19,1.75-2.34,3.47-3.24,4.81C58.37,374.17,57.58,372.4,56.47,370.5z M86.75,390.66l-4.5,0.45 		l-12.76-2.87l-0.16,0.08c-0.03,0.01-3.07,1.47-5.28,0.23c-1.99-1.1-2.01-2.92-2.01-2.99l0.01-0.7l-0.67,0.21 		c-0.03,0.01-2.8,0.83-3.72-1.21c-0.99-2.19,0.45-4.58,0.46-4.59c0.07-0.1,5.04-7.61,8.28-12.23l4.9,1.82 		c-1.5,2.94-3.83,7.28-5.26,9.89l0.87,0.54c2.35-3.33,4.98-6.79,7.17-9.4l4.62,1.71c-0.34,0.57-0.73,1.21-1.17,1.94l-2.12,3.5 		l0.09-0.08c-0.4,0.58-0.83,1.19-1.27,1.83c-1.09,1.59-2.07,3.04-2.76,4.1c-0.69,1.06-1.1,1.73-1.05,1.76 		c0.04,0.03,0.53-0.58,1.28-1.6c0.75-1.02,1.76-2.44,2.86-4.04c0.84-1.22,1.61-2.37,2.22-3.32l1.55-1.53 		c0.66-0.65,1.26-0.91,1.78-0.76c1.13,0.32,2.12,0.89,2.79,1.59l0.15,0.16h0.13c0.08,0.2,0.17,0.41,0.23,0.65 		c0.17,0.67,0.2,1.55-0.28,2.35c-0.46,0.83-1.02,1.73-1.6,2.67c-1.17,1.88-2.24,3.58-2.99,4.83c-0.75,1.24-1.17,2.05-1.12,2.07 		c0.04,0.02,0.55-0.72,1.36-1.92c0.81-1.21,1.91-2.89,3.09-4.77c0.3-0.49,0.59-0.97,0.87-1.43c0.07-0.03,0.15-0.07,0.24-0.11 		c0.32-0.14,0.8-0.45,1.36-0.48c0.29,0.01,0.62,0.11,0.94,0.26c0.33,0.16,0.68,0.34,0.9,0.64c0.47,0.61,0.62,1.58,0.4,2.47 		c-0.22,0.92-0.6,1.78-0.93,2.56c-0.33,0.74-0.63,1.44-0.91,2.06c-0.51,1.18-0.73,1.96-0.67,1.98c0.05,0.02,0.35-0.71,0.93-1.86 		c0.28-0.58,0.63-1.26,0.98-2.03c0.35-0.78,0.74-1.63,0.98-2.62c0.24-1,0.08-2.06-0.5-2.79c-0.3-0.37-0.71-0.56-1.06-0.72 		c-0.36-0.15-0.72-0.25-1.08-0.24c-0.37,0.02-0.64,0.17-0.87,0.28c-0.23,0.12-0.42,0.24-0.57,0.34c-0.01,0.01-0.02,0.01-0.03,0.02 		c0.21-0.36,0.41-0.71,0.59-1.05c0.51-0.89,0.44-1.89,0.23-2.59c-0.07-0.21-0.15-0.4-0.23-0.58h3.17l12.14,4.41 		C97.68,385.52,92.8,390.06,86.75,390.66z M103.75,385.9c-3.72,2.7-8.1,4.29-12.63,4.67c4.57-1.95,7.94-6.14,8.7-11.26l9.35,1.43 		c-0.11,0.37-0.22,0.75-0.33,1.14l-0.44,0.66L103.75,385.9z M46.26,414.14c0-6.49,5.28-11.77,11.77-11.77 		c6.49,0,11.77,5.28,11.77,11.77s-5.28,11.77-11.77,11.77c-0.2,0-0.4-0.02-0.6-0.03c-0.98-0.15-1.98-0.34-3-0.54 		C49.7,423.81,46.26,419.37,46.26,414.14z M80.1,435.72c-10.06,0-19.2-3.28-26.54-9.51c0.2,0.04,0.4,0.08,0.61,0.12 		c1.01,0.32,2.08,0.51,3.18,0.56c3.31,0.51,6.47,0.78,9.46,0.78c5.25,0,9.99-0.79,14.22-2.38c12.55-4.71,18.68-15.52,22.62-24.41 		c1.68-3.79,4.22-12.04,6.16-18.67l0.84-1.25l9.18,1.4c1.15,3.84,1.73,7.83,1.73,11.89C121.56,417.12,102.96,435.72,80.1,435.72z 		 M120.94,382.54l0.55,0.08l-0.05,1.83C121.28,383.82,121.12,383.18,120.94,382.54z M143.07,380.51l-26.21-12.78 		c0.14-0.08,0.28-0.17,0.44-0.27c0.81-0.49,1.92-1.18,3.26-1.67c1.33-0.49,2.64-0.6,3.56-0.5c0.93,0.1,1.47,0.35,1.49,0.28 		c0.02-0.03-0.49-0.38-1.45-0.56c-0.95-0.19-2.34-0.11-3.73,0.4c-1.39,0.51-2.5,1.26-3.28,1.81c-0.2,0.14-0.37,0.27-0.52,0.39 		l-9.87-4.81c0.01-0.01,0.03-0.01,0.04-0.02c0.42-0.2,1.02-0.53,1.71-1c0.69-0.47,1.48-1.08,2.35-1.73 		c0.88-0.65,1.85-1.36,2.99-1.87c2.28-1.05,4.65-0.83,6.26-0.65c1.64,0.21,2.65,0.4,2.66,0.33c0.01-0.03-0.24-0.1-0.69-0.21 		c-0.45-0.11-1.11-0.26-1.93-0.4c-0.82-0.13-1.82-0.25-2.93-0.22c-1.11,0.03-2.36,0.23-3.53,0.79c-1.18,0.53-2.17,1.27-3.04,1.94 		c-0.87,0.68-1.63,1.3-2.29,1.79c-0.74,0.56-1.35,0.93-1.75,1.16l-5.86-2.86l9.29-7.85c0.96-0.81,2.18-1.21,3.43-1.14l13.83,0.8 		c1.14,0.07,2.23,0.54,3.07,1.32l7.6,7.16l0.1,0.09l0.43,0.1c0.48,0.64,1.32,1.71,2.24,2.96c1.47,1.97,2.58,3.62,2.68,3.56 		c0.09-0.05-0.88-1.81-2.36-3.79c-0.83-1.11-1.62-2.03-2.18-2.63l6.89,1.56l2.51,18.98L143.07,380.51z M206.31,412.6h-39.05v-0.02 		h-1.75l-3.57-28.62c9.28,0.45,22.02,1.02,32.76,1.31L206.31,412.6z M214.79,384.09c-1.92,0.42-8.59,0.43-16.98,0.23l0,0l-0.15,0 		c-0.75-0.02-1.51-0.04-2.28-0.06l0,0l-1.12-0.03l0,0c-0.21-0.01-0.43-0.01-0.65-0.02l-0.16,0l0,0c-9.76-0.29-20.99-0.78-29.69-1.19 		l0,0l-0.11,0c-0.62-0.03-1.24-0.06-1.84-0.09l0,0l-1.04-0.05v0c-0.09,0-0.17-0.01-0.25-0.01l-0.05,0l0,0 		c-5.49-0.27-9.54-0.48-10.82-0.55L147,361.18l11.24-1.65l0,0l1.55-0.23l0,0l28.57-4.21l1.37-0.2l0.1-0.02l0.61-0.09l4.51-0.66 		l-3.16-17.68l0-0.03h-1.05l0.01,0.07l-1.95,17.51l-29.31,4.31l-1.96-32.88l11.61-60.58c0.66-3.43-0.84-6.43-2.59-9.45l0.06-2.32 		l6.4,3.7c0,0.07,0.01,0.13,0.02,0.17l0.09,0.45c0.03,0.16,0.07,0.35,0.12,0.56c0.07,0.32,0.16,0.71,0.24,1.18 		c0.27,1.36,0.64,3.6,0.89,6.48c0.26,2.99,0.32,6.4,0.16,9.87c-0.14,3.39-0.49,7.3-1.09,11.92l-4.6,0.85l0.24,0.65 		c0.23,0.61,0.48,1.32,0.68,2.05c1.19,4.33,1.03,9.14-0.46,14.28c-1.3,4.42-3.32,8.11-4.94,10.83c-1.54,2.56-2.97,4.64-4.01,6.16 		l-2.01,2.95c-0.12,0.18-0.19,0.29-0.15,0.46l0.03,0.14l0.12,0.08c0.08,0.05,0.15,0.08,0.22,0.08c0.2,0,0.35-0.19,0.44-0.3l1.78-2.4 		c1.14-1.59,2.71-3.77,4.47-6.62c1.67-2.74,3.77-6.48,5.13-11.05c1.58-5.34,1.74-10.35,0.5-14.9c-0.14-0.52-0.31-1.03-0.48-1.51 		l4.07-0.76l0.06-0.42c0.62-4.83,0.98-8.9,1.1-12.44c0.13-3.53,0.05-6.99-0.25-10.01c-0.29-3.01-0.72-5.23-1.02-6.57 		c-0.11-0.55-0.23-1-0.33-1.36l-0.08-0.28l6.88,3.98l12.28,5.02l2.41,0.96l1.61,0.62c7.69,2.98,13.38,9.56,15.2,17.6 		c2.02,8.89,4.52,18.8,6.95,28.39c4.82,19.05,9.37,37.04,9.47,44.52C228.95,371.88,223.34,382.2,214.79,384.09z M189.84,353.84 		l1.54-13.82l2.37,13.24L189.84,353.84z"></path> 	<path d="M163.75,383.02L163.75,383.02c-0.03,0-0.07,0-0.11,0L163.75,383.02z"></path> 	<path d="M160.47,382.86l0.05,0C160.5,382.86,160.49,382.86,160.47,382.86L160.47,382.86z"></path> </g> <g> </g> <g> </g> <g> </g> <g> </g> <g> </g> <g> </g> <g> </g> <g> </g> <g> </g> <g> </g> <g> </g> <g> </g> <g> </g> <g> </g> <g> </g> </svg>