<svg
  version="1.1"
  id="Capa_1"
  xmlns="http://www.w3.org/2000/svg"
  xmlns:xlink="http://www.w3.org/1999/xlink"
  x="0px"
  y="0px"
  viewBox="0 0 300 300"
  xml:space="preserve"
  fill="#fff"
>
  <path
    d="M127.23,110.35c0,17.27,0,34.29,0,51.9c-2.37-0.4-4.42-0.8-6.48-1.1c-19.07-2.76-37.67,7.73-45.79,25.81 	c-7.73,17.21-2.92,38.32,11.51,50.59c14.92,12.69,36.4,14.11,52.42,3.16c13.01-8.9,19.37-21.48,19.37-37.23 	c0.02-49.82,0.01-99.64,0.01-149.46c0-16.37,0-32.73,0-49.1c0-1.55,0-3.1,0-4.93c17.39,0,34.25,0,51.09,0 	c1.09,6.14,1.77,12.31,3.31,18.25c6.44,24.87,22.53,40.85,46.55,48.98c5.98,2.03,12.37,2.85,18.51,4.46 	c1.15,0.3,2.85,1.72,2.86,2.64c0.18,15.91,0.13,31.83,0.13,48.3c-25.94-0.28-48.9-8.46-70.65-23.24c0,4.22,0,7.75,0,11.29 	c0.01,30.7,0,61.41,0.02,92.11c0.03,45.54-28.58,82.77-72.52,94.33c-42.47,11.17-89.62-10.99-108.22-50.8 	c-15.05-32.21-13.3-63.64,5.88-93.38C55.89,120.89,91.69,105.33,127.23,110.35z"
  />
</svg>