<svg xml:space="preserve" fill="#2d3663" viewBox="0 0 300 300" y="0px" x="0px" xmlns:xlink="http://www.w3.org/1999/xlink" xmlns="http://www.w3.org/2000/svg" id="Capa_1" version="1.1"> <g> 	<path d="M151.66,9.5C73.31,8.91,9.88,71.13,9.5,149.38c-0.37,77.81,61.88,139.72,137.79,141.1 		c78.24,1.5,142.68-61.03,143.21-139.57C291.02,73.58,228.58,10.09,151.66,9.5z M221.9,202.6c-1.66,0.59-2.44,1.33-2.83,3.08 		c-1.86,8.46-4.63,16.54-10.37,23.31c-8.35,9.85-19.31,14.27-31.81,15.57c-2.31,0.24-4.63,0.31-6.95,0.46 		c-13.46-0.02-25.75-3.43-35.71-12.95c-8.56-8.18-13.14-18.58-15.7-29.93c-0.7-3.12-1.48-6.03-3.49-8.7 		c-2.12-2.81-3.22-6.23-3.88-9.74c-0.2-1.05-0.33-2.14-1.52-2.81c-10.23-5.84-16.51-15.13-21.68-25.29 		c-8.11-15.91-12.7-32.97-15.96-50.43c-0.08-0.42-0.07-0.87-0.21-1.27c-2.35-7.04,0.45-12,6.32-15.73c1.52-0.97,3-2.03,4.59-2.87 		c1.35-0.72,2.28-1.72,3.07-3.01c3.66-5.99,11.28-7.72,17.07-3.94c5.45,3.57,6.99,11.11,3.39,16.63 		c-3.71,5.69-11.28,7.09-17.03,3.16c-0.78-0.53-1.41-1.61-2.58-0.51c-1.06,1-2.75,1.35-2.34,3.51c3.58,18.74,8.51,37.02,18.08,53.73 		c2.88,5.02,6.27,9.69,11.04,13.15c6.8,4.93,12.42,4.85,19.07-0.32c6.14-4.77,10.06-11.25,13.46-18.05 		c7.64-15.26,12-31.58,15.37-48.22c0.41-2.03-0.94-2.65-2.14-3.63c-1.25-1.02-1.95-0.27-2.89,0.39c-5.53,3.88-13.07,2.52-16.88-3.01 		c-3.71-5.39-2.32-12.9,3.09-16.7c5.31-3.73,13.02-2.45,16.67,3.02c1.35,2.02,2.91,3.53,5.01,4.6c0.91,0.47,1.74,1.1,2.62,1.65 		c5.93,3.75,8.66,8.42,7.11,15.99c-3.79,18.41-8.28,36.53-17.06,53.3c-5.05,9.64-11.26,18.34-21.01,23.88 		c-0.84,0.48-1.17,1.18-1.3,2.08c-0.5,3.53-1.79,6.8-3.52,9.9c-0.51,0.92-0.87,1.84-0.67,2.94c1.82,10.09,5.29,19.41,12.78,26.78 		c6.61,6.51,14.91,8.95,23.91,9.47c8.75,0.5,17.19-0.79,24.89-5.2c8.62-4.93,12.56-13.09,14.87-22.3c0.41-1.62-0.81-1.6-1.7-1.95 		c-7.52-2.99-13.01-8.11-15.54-15.86c-3.24-9.94-1.31-19.01,6.16-26.37c7.64-7.53,16.96-9.34,26.93-5.62 		c9.59,3.58,15.15,10.83,16.24,21.08C240.18,188.06,233.47,198.51,221.9,202.6z"></path> 	<path d="M214.25,165.53c-7.26-0.16-13.35,5.54-13.54,12.67c-0.19,7.16,5.58,13.15,12.88,13.36c6.95,0.2,13.18-5.74,13.29-12.67 		C226.99,171.79,221.21,165.68,214.25,165.53z M213.68,185.08c-3.49-0.08-6.35-3.02-6.34-6.52c0.01-3.69,2.89-6.53,6.58-6.47 		c3.58,0.06,6.33,2.85,6.33,6.44C220.26,182.15,217.24,185.16,213.68,185.08z"></path> 	<rect height="1.82" width="1.82" y="180.54" x="222.59"></rect> </g> <g> </g> <g> </g> <g> </g> <g> </g> <g> </g> <g> </g> <g> </g> <g> </g> <g> </g> <g> </g> <g> </g> <g> </g> <g> </g> <g> </g> <g> </g> </svg>