<svg fill="#fff" viewBox="0 0 200 200" y="0px" x="0px" xmlns:xlink="http://www.w3.org/1999/xlink" xmlns="http://www.w3.org/2000/svg" id="Capa_1" version="1.1"> <g> 	<path d="M5.98,77.6c4.55-4.34,10.01-5.82,16.21-5.63c6.68,0.21,13.37,0.01,20.05,0.03c1.19,0,2.24-0.26,3.3-0.81 		C65.69,60.81,85.85,50.46,106,40.07c1.34-0.69,2.66-1.01,4.17-0.98c3.95,0.09,7.9,0.02,11.85,0.02c6.35,0.01,9.93,3.57,9.95,9.97 		c0.03,10.27,0.05,20.54-0.03,30.81c-0.01,1.7,0.46,2.25,2.2,2.39c5.36,0.43,9.57,4.83,9.9,10.2c0.14,2.36,0.16,4.74,0.06,7.11 		c-0.25,6-4.41,10.42-10.41,10.92c-1.55,0.13-1.73,0.74-1.72,2.03c0.05,10.21,0.04,20.42,0.05,30.63c0.01,7-3.41,10.46-10.36,10.47 		c-3.83,0.01-7.66-0.03-11.49,0.04c-1.45,0.03-2.76-0.26-4.03-0.91c-8.25-4.26-16.5-8.53-24.76-12.77 		c-8.26-4.24-16.54-8.44-24.81-12.67c-2.46-1.26-4.92-2.54-7.73-3.99c1.01,4.4,2.72,7.93,5.93,10.57c1.12,0.92,2.4,1.64,3.61,2.47 		c1.72,1.19,2.2,2.83,1.28,4.38c-0.98,1.65-2.69,2.04-4.58,0.99c-4.84-2.68-8.43-6.51-10.6-11.63c-0.21-0.5-0.43-1.01-0.66-1.5 		c-0.04-0.08-0.19-0.11-0.44-0.25c-0.02,2.44-0.06,4.78-0.06,7.13c0,8.99,0.02,17.99,0.03,26.98c0,4.83-2.41,7.29-7.25,7.4 		c-4.4,0.11-8.74,0.02-12.61-2.61c-4.81-3.27-7.21-7.8-7.25-13.54c-0.06-10.27-0.05-20.54,0.02-30.81c0.01-1.67-0.43-2.43-2.14-2.9 		c-7.42-2.07-12.76-8.69-13.1-16.39c-0.22-4.85-0.06-9.72-0.06-14.58c0-1.98,0.76-3.8,1.17-5.7C3.42,81.45,4.7,79.53,5.98,77.6z 		 M49.14,116.48c1.36,0.69,3.04,1.54,4.71,2.4c8.21,4.22,16.41,8.44,24.61,12.65c8.26,4.24,16.54,8.44,24.79,12.7 		c2.35,1.21,2.38,1.24,2.38-1.49c-0.01-30.87-0.03-61.74-0.04-92.62c0-2.79,0-2.79-2.52-1.5c-16.97,8.72-33.89,17.55-50.95,26.09 		c-3.21,1.61-4.4,3.32-4.3,6.98c0.3,10.75,0.12,21.51,0.13,32.26C47.96,114.84,47.71,115.83,49.14,116.48z M124.33,45.85 		c-0.66-0.53-1.52-0.53-2.37-0.53c-2.61,0-5.23,0.13-7.84-0.03c-1.86-0.12-2.32,0.47-2.31,2.32c0.08,18.96,0.07,37.92,0.08,56.87 		c0.01,13.49,0.01,26.98,0.02,40.47c0,2.49,0,2.48,2.41,2.48c2.43,0,4.86,0.03,7.29,0.02c3.43-0.02,4.22-0.8,4.21-4.16 		c-0.01-21.81-0.03-43.62-0.05-65.44c-0.01-9.6-0.03-19.2-0.03-28.8C125.74,47.78,125.63,46.6,124.33,45.85z M13.31,113.06 		c1.37,1.02,3.75,1.56,6.3,1.55c6.86-0.02,13.72-0.05,20.57,0.03c1.31,0.01,1.5-0.45,1.49-1.57c-0.04-11.11-0.05-22.21-0.03-33.32 		c0-1.15-0.28-1.59-1.53-1.58c-6.98,0.06-13.96-0.02-20.94,0.07C12.57,78.34,7.41,83.39,7.2,89.99c-0.14,4.31-0.11,8.62,0.02,12.93 		C7.33,107,9.19,110.23,13.31,113.06z M26.47,161.89c3.31,2.16,6.7,1.81,10.03,1.72c0.8-0.02,0.6-0.8,0.6-1.3 		c0.01-13.31,0-26.62,0.02-39.92c0-1.1-0.39-1.49-1.5-1.47c-3.89,0.05-7.78,0.07-11.67,0.01c-1.23-0.02-1.55,0.43-1.53,1.59 		c0.06,3.58,0.04,7.17,0.04,10.76c0.02,6.99,0.02,13.98,0.05,20.96C22.53,157.58,24.15,160.11,26.47,161.89z M135.38,89.12 		c-0.11-0.06-0.47-0.3-0.86-0.45c-1.95-0.74-2.49-0.37-2.48,1.7c0,4.13,0.06,8.26-0.01,12.38c-0.03,1.52,0.59,1.78,1.87,1.49 		c2.11-0.47,3.73-2.08,3.88-4.27c0.16-2.36,0.14-4.73,0.04-7.09C137.74,91.36,136.95,90.12,135.38,89.12z"></path> 	<path d="M173.91,42.81c0.39,2.59-0.77,4.92-3.09,6.11c-1.32,0.68-2.62,0.56-3.65-0.54c-1.06-1.13-1.26-2.52-0.37-3.82 		c1.14-1.65,2.45-3.17,4.68-3.36C172.29,41.73,173.1,42.27,173.91,42.81z"></path> 	<path d="M159.09,107.14c-1.46-0.98-1.52-2.81-0.27-3.73c0.35-0.26,0.77-0.44,1.18-0.61c11.54-4.83,23.08-9.65,34.62-14.48 		c0.9-0.38,1.77-0.59,2.67-0.01c1.37,0.88,1.44,2.77,0.1,3.69c-0.36,0.25-0.78,0.42-1.19,0.59c-11.45,4.81-22.91,9.6-34.36,14.41 		C160.86,107.4,159.9,107.73,159.09,107.14z"></path> 	<path d="M143.89,68.76c3.01-3.21,6.28-6.71,9.56-10.2c1.78-1.9,3.56-3.81,5.36-5.69c1.58-1.65,3.49-1.86,4.8-0.57 		c1.38,1.37,1.3,3.11-0.27,4.8c-4.75,5.1-9.51,10.19-14.27,15.29c-0.25,0.27-0.52,0.51-0.79,0.75c-1.47,1.32-3.06,1.38-4.4,0.19 		C142.63,72.24,142.56,70.66,143.89,68.76z"></path> 	<path d="M162.15,137.4c-5.77-4.22-11.56-8.44-17.32-12.68c-1.6-1.18-1.94-3.07-0.9-4.47c1.04-1.38,3.01-1.69,4.57-0.57 		c4.34,3.11,8.64,6.27,12.95,9.41c1.47,1.07,2.92,2.17,4.39,3.24c2.03,1.48,2.61,3.42,1.47,4.95 		C166.16,138.83,164.19,138.89,162.15,137.4z"></path> 	<path d="M177.94,141.16c0.78,0.58,1.61,1.1,2.32,1.76c1.27,1.17,1.46,2.85,0.57,4.13c-0.89,1.28-2.56,1.72-4.06,0.94 		c-1.74-0.9-3.23-2.19-4.6-3.54c-1.11-1.1-1.14-2.57-0.14-3.82c0.98-1.23,2.32-1.53,3.76-0.81c0.75,0.38,1.43,0.92,2.13,1.39 		C177.92,141.19,177.93,141.18,177.94,141.16z"></path> 	<path d="M31.92,100.36c1.25,0.87,1.75,1.85,1.6,3.1c-0.16,1.36-1.02,2.39-2.28,2.51c-3.97,0.37-7.98,0.38-11.95,0.02 		c-1.51-0.14-2.38-1.37-2.37-2.99c0.01-1.58,1.03-2.91,2.62-2.96c3.75-0.12,7.5-0.05,11.25-0.02 		C31.25,100.02,31.7,100.29,31.92,100.36z"></path> 	<path d="M18.46,90.83c-1.18-0.76-1.71-1.75-1.53-3c0.18-1.3,0.9-2.43,2.23-2.56c3.99-0.41,8-0.34,11.99-0.03 		c1.44,0.11,2.33,1.3,2.36,2.82c0.04,1.5-0.72,2.79-2.17,2.97c-4.04,0.5-8.11,0.33-12.16,0.1C18.9,91.12,18.63,90.9,18.46,90.83z"></path> </g> <polygon points="44.81,117.94 110.25,148.37 109.31,142.29 107.81,45.27 102.75,45.27 47.82,76.12 45.94,78.17"></polygon> <polygon points="21.19,119 38.44,120.9 40.5,165.94 33.55,167.62 25.24,166.31 20.06,159.75 16.92,152.62"></polygon> <rect height="17.61" width="9" y="86.91" x="129.84"></rect> <g> </g> <g> </g> <g> </g> <g> </g> <g> </g> <g> </g> <g> </g> <g> </g> <g> </g> <g> </g> <g> </g> <g> </g> <g> </g> <g> </g> <g> </g> </svg>