<svg version="1.1" fill="#dc2268" id="Capa_1" xmlns="http://www.w3.org/2000/svg" xmlns:xlink="http://www.w3.org/1999/xlink" x="0px" y="0px" viewBox="0 0 100 100" xml:space="preserve"> <path d="M97.56,50.12C97.5,76.36,76.04,97.68,49.79,97.56C23.62,97.45,2.37,76.05,2.44,49.88C2.5,23.64,23.96,2.32,50.21,2.44 	C76.38,2.55,97.63,23.95,97.56,50.12z M42.71,57.55c-0.59-0.56-1.05-0.98-1.48-1.41c-2.94-2.93-5.87-5.86-8.8-8.79 	c-1.84-1.84-4.03-2.64-6.6-1.98c-5.21,1.35-6.78,7.45-2.89,11.46c4.62,4.75,9.35,9.39,14.03,14.07c3.92,3.91,7.47,3.92,11.38,0.01 	c9.37-9.36,18.73-18.73,28.1-28.1c0.48-0.48,0.97-0.96,1.38-1.5C79.54,39,79.78,36.52,78.4,34c-1.34-2.45-3.51-3.56-6.3-3.44 	c-2.14,0.09-3.68,1.25-5.11,2.69C58.95,41.32,50.89,49.36,42.71,57.55z"></path> <g> </g> <g> </g> <g> </g> <g> </g> <g> </g> <g> </g> <g> </g> <g> </g> <g> </g> <g> </g> <g> </g> <g> </g> <g> </g> <g> </g> <g> </g> </svg>