<svg version="1.1" fill="#fff" id="Capa_1" xmlns="http://www.w3.org/2000/svg" xmlns:xlink="http://www.w3.org/1999/xlink" x="0px" y="0px" viewBox="0 0 500 500" style="enable-background:new 0 0 500 500;" xml:space="preserve"> <path d="M432.55,272.26c-7.13-49.18-34.39-83.72-79.28-104.58c-0.76-0.35-1.52-0.71-2.27-1.06c-0.25-0.33-0.49-0.67-0.74-1 	c1.05-0.67,2.27-1.17,3.13-2.02c9.58-9.5,19.15-19.01,28.64-28.6c6.67-6.75,6.6-15.35-0.07-22.04c-0.94-0.95-2.12-1.66-3.35-2.61 	c1.35-1.45,2.16-2.38,3.03-3.26c5.38-5.39,10.79-10.75,16.17-16.13c5.73-5.73,6.08-7.66,2.59-15.24 	c6.75-6.71,13.58-13.49,20.4-20.28c4.03-4.01,4.18-9.34,0.18-13.37c-10.58-10.68-21.21-21.31-31.89-31.9 	c-4.1-4.06-9.23-4.03-13.37,0c-3.8,3.7-7.53,7.47-11.25,11.24c-3.1,3.14-6.14,6.34-9.08,9.38c-7.11-3.64-9.69-3.21-15.03,2.17 	c-1.7,1.71-3.42,3.39-5.11,5.11c-4.58,4.66-9.15,9.33-13.85,14.12c-1.04-0.96-1.74-1.58-2.41-2.24c-7.97-7.89-16.07-7.86-23.92,0 	c-26.97,27-53.96,53.97-80.95,80.95c-14.99,14.99-30,29.96-44.96,44.98c-6.42,6.45-6.46,15.05-0.15,21.64 	c0.99,1.04,2.22,1.84,3.61,2.97c-1.2,1.3-1.82,2.02-2.49,2.69c-6.13,6.14-12.29,12.25-18.38,18.42c-4.18,4.24-4.24,9.36-0.05,13.56 	c14.62,14.69,29.28,29.33,43.96,43.95c4.51,4.49,9.45,4.46,13.95,0c6.1-6.03,12.14-12.12,18.21-18.18c0.72-0.72,1.48-1.4,2.5-2.36 	c0.89,1.02,1.53,1.86,2.28,2.6c7.49,7.42,15.82,7.41,23.32-0.06c9.69-9.66,19.39-19.32,29.01-29.05c1.42-1.43,2.62-1.95,4.75-1.55 	c16.74,3.1,31.3-1.33,43.45-13.27c1.63-1.6,2.76-1.39,4.47-0.53c33.11,16.55,51.28,54.51,43.1,90.15 	c-8.52,37.12-41.08,63.41-78.83,63.49c-35.38,0.08-70.75,0.02-106.13,0.01c-1.01,0-2.02-0.11-2.96-0.16c0-3.18,0-6,0-9.02 	c1.32,0,2.37,0,3.42,0c12.05,0,24.1,0.07,36.15-0.02c10.34-0.08,17.57-7.42,17.68-17.76c0.03-2.99,0.01-5.98,0.01-8.96 	c-0.01-5.89-1.89-7.76-7.8-7.76c-42.8,0-85.6,0-128.39,0c-12.53,0-25.06-0.01-37.59,0c-4.6,0.01-6.75,2.08-6.87,6.66 	c-0.08,3.08-0.05,6.17-0.04,9.25c0.04,11.39,7.22,18.58,18.64,18.59c11.86,0.02,23.71,0,35.57,0.01c1.03,0,2.05,0.09,3.12,0.14 	c0,3.09,0,5.91,0,9.03c-1.26,0-2.3,0-3.34,0c-15.52,0-31.04-0.01-46.56,0.01c-5.41,0.01-7.36,1.91-7.38,7.27 	c-0.04,12.05-0.03,24.1-0.02,36.15c0,5.7,1.94,7.64,7.63,7.65c14.94,0.01,29.88,0,44.82,0.01c0.92,0,1.84,0.08,3.16,0.14 	c-0.68,1.13-1.13,1.94-1.65,2.71c-4.29,6.4-8.71,12.72-12.84,19.23c-1.47,2.32-3.05,3.16-5.8,3.11c-10.6-0.18-21.21-0.1-31.81-0.06 	c-4.24,0.02-6.69,2.09-6.72,5.9c-0.08,12.53-0.07,25.06,0,37.59c0.02,3.39,2.21,5.56,5.57,5.86c1.24,0.11,2.5,0.05,3.76,0.05 	c75.76,0,151.53,0,227.29,0c5.82,0,7.84-1.98,7.85-7.78c0.01-11.28,0.02-22.56,0-33.83c-0.01-5.89-1.93-7.81-7.78-7.81 	c-10.6,0-21.21-0.03-31.81,0.06c-1.94,0.02-3.15-0.58-4.24-2.24c-4.53-6.94-9.21-13.78-13.81-20.67c-0.4-0.6-0.69-1.27-1.24-2.29 	c1.64,0,2.87,0,4.09,0c14.84,0,29.69-0.02,44.53,0.01c14.77,0.03,29.17-2.21,43.2-6.88C403.12,394.75,441.5,333.97,432.55,272.26z 	 M299.38,219.81c-19.7,0.24-36.25-15.99-36.42-35.72c-0.17-19.96,15.88-36.37,35.85-36.65c19.83-0.28,36.21,15.85,36.51,35.94 	C335.61,203.24,319.51,219.56,299.38,219.81z M330.23,60.04c5.94-5.88,12.21-12.09,18.37-18.19c13.44,13.48,27.01,27.09,40.53,40.65 	c-6.04,5.91-12.34,12.09-18.42,18.04C357.43,87.26,343.81,73.63,330.23,60.04z M138.75,361.38c13.97,0,27.79,0,41.86,0 	c0,2.8,0,5.63,0,8.73c-13.84,0-27.71,0-41.86,0C138.75,367.09,138.75,364.33,138.75,361.38z M253.2,445.06 	c0.2,0.29,0.3,0.65,0.58,1.3c-43.79,0-87.17,0-131.08,0c2.38-3.56,4.5-6.74,6.63-9.91c2.95-4.4,5.83-8.85,8.92-13.15 	c0.66-0.91,2.08-1.8,3.16-1.8c31.31-0.1,62.62-0.09,93.93-0.02c0.98,0,2.35,0.54,2.86,1.29 	C243.28,430.14,248.22,437.61,253.2,445.06z"></path> <path d="M323.63,183.72c-0.08,13.71-11.02,24.49-24.75,24.4c-13.31-0.09-24.34-11.19-24.23-24.38c0.11-13.72,11.14-24.72,24.65-24.6 	C312.8,159.26,323.71,170.28,323.63,183.72z M286.41,183.73c0,6.95,5.71,12.65,12.7,12.7c7.05,0.04,12.88-5.79,12.86-12.87 	c-0.02-6.94-5.75-12.64-12.74-12.66C292.06,170.87,286.41,176.54,286.41,183.73z"></path> <path d="M286.41,183.73c0-7.2,5.65-12.87,12.81-12.84c6.99,0.03,12.73,5.73,12.74,12.66c0.02,7.08-5.81,12.92-12.86,12.87 	C292.11,196.39,286.41,190.69,286.41,183.73z"></path> <g> </g> <g> </g> <g> </g> <g> </g> <g> </g> <g> </g> <g> </g> <g> </g> <g> </g> <g> </g> <g> </g> <g> </g> <g> </g> <g> </g> <g> </g> </svg>