<svg
  xml:space="preserve"
  fill="#dc2268"
  viewBox="0 0 100 100"
  y="0px"
  x="0px"
  xmlns:xlink="http://www.w3.org/1999/xlink"
  xmlns="http://www.w3.org/2000/svg"
  id="Capa_1"
  version="1.1"
>
  <path
    d="M49.95,94.71c-1.81-2.17-3.59-4.26-5.31-6.4c-7.4-9.21-14.17-18.84-19.47-29.44c-2.58-5.16-4.71-10.49-5.83-16.18 	C15.88,25.11,27.63,8.38,45.35,5.65c17.03-2.62,33.27,9.44,35.62,26.42c0.83,6.03-0.2,11.8-2.18,17.47 	c-2.55,7.32-6.22,14.08-10.34,20.61c-5.28,8.36-11.24,16.23-17.71,23.71C50.52,94.11,50.28,94.35,49.95,94.71z M50.03,47.74 	c6.22-0.02,11.14-4.98,11.11-11.22c-0.02-6.15-4.99-11.07-11.16-11.06c-6.17,0.01-11.11,4.96-11.11,11.11 	C38.86,42.8,43.82,47.76,50.03,47.74z"
  />
</svg>