<svg version="1.1" fill="#2d3663" id="Capa_1" xmlns="http://www.w3.org/2000/svg" xmlns:xlink="http://www.w3.org/1999/xlink" x="0px" y="0px" viewBox="0 0 200 200" xml:space="preserve"> <g> 	<path d="M95.57,104c-7.26,2.03-11.63,7.11-13.51,14.3c-2.38,9.08,1.94,19.92,9.87,24.99c4.25,2.71,8.93,3.84,13.91,2.9 		c9.48-1.78,15.83-9.96,15.8-18.13c-0.11-8.32-2.27-13.87-6.74-18.34C109.54,104.35,103.1,101.9,95.57,104z M116.58,133.68 		c-1.37,3.41-4.68,4.98-9.3,4.33c-1.26-0.18-2.49-0.19-3.75-0.19c-4.58,0.02-8.04-2.41-11.19-5.38c-0.87-0.82-1.64-1.74-2.45-2.63 		c-2-2.2-2.04-4.33-0.06-6.52c0.96-1.06,2.65-1.93,2.84-3.08c0.18-1.11-1.13-2.47-1.8-3.71c-0.73-1.37-0.21-2.79,0.2-4 		c0.32-0.93,1.58-0.8,2.51-0.25c0.89,0.52,0.96,1.06,0.27,1.85c-0.55,0.63-0.79,1.43-0.77,2.43c1.05-0.4,1.3-1.38,1.96-1.93 		c0.59-0.49,1.23-0.95,1.91-0.39c0.72,0.59,0.16,1.18-0.27,1.69c-0.9,1.08-1.07,2.25-0.38,3.5c0.3,0.54,0.47,1.13,0.38,1.73 		c-0.36,2.51,1.11,4,2.85,5.41c0.57,0.46,0.92,0.28,1.42,0c1.31-0.73,1.66-2.13,1.9-3.33c0.22-1.15,1.02-1.23,1.67-1.69 		c0.37,0.64,1.28-0.3,1.7,0.7c0.41,0.98,0.73,1.71-0.19,2.52c-0.2,0.18-0.25,0.53-0.37,0.81c0.71,0.34,1.42,0.26,2.14,0.02 		c2.64-1.95,4.62-2.1,6.68-0.49C116.99,127.03,117.84,130.55,116.58,133.68z"></path> 	<path d="M100.36,2.13C45.91,2.11,2.13,45.73,2.12,99.98c0,54.1,43.63,97.74,97.86,97.89c53.67,0.15,97.87-43.8,97.89-97.34 		C197.89,46.12,154.31,2.14,100.36,2.13z M69.34,113.92c-2.48,5.24-4.93,10.51-7,15.93c-2.67,6.97-3.04,13.95-0.37,21.04 		c1.16,3.08,2.03,6.26,3.12,9.37c0.38,1.09,0.12,1.35-0.96,1.3c-1.62-0.07-3.24-0.04-4.86-0.01c-0.74,0.02-1.24-0.14-1.48-0.95 		c-1.55-5.21-3.85-10.2-4.48-15.66c-0.15-1.31-0.19-2.62-0.28-3.94c0.03-6.12,1.84-11.81,4.21-17.34c1.65-3.85,3.35-7.67,5.21-11.42 		c4.57-9.25,5.3-18.81,3.14-28.84c-2.79-12.97-6.9-25.5-11.64-37.86c-0.78-2.04-0.8-2.08,1.36-2.03c1.78,0.05,3.89-0.68,5.26,0.3 		c1.35,0.98,1.48,3.17,2.1,4.84c4.17,11.42,7.73,23,10.1,34.95C74.8,94.11,73.94,104.17,69.34,113.92z M118.93,142.76 		c-4.32,4.82-9.77,7.17-14.18,7.26c-12.45,0-22.24-7.78-25.34-18.44c-2.03-6.98-1.57-13.73,1.69-20.24 		c4.12-8.22,16.49-15.81,29.53-8.99C125.37,110.05,129.74,130.7,118.93,142.76z M149.85,130.62c-0.32,7.53-3.8,13.77-8.46,19.4 		c-2.56,3.09-4.77,6.29-5.58,10.29c-0.18,0.91-0.69,1.29-1.65,1.23c-1.25-0.07-2.52-0.08-3.77,0c-1.36,0.1-1.63-0.43-1.37-1.69 		c0.89-4.35,2.54-8.34,5.33-11.83c1.12-1.4,2.23-2.82,3.36-4.22c4.98-6.2,6.07-13.32,5.23-21.01c-1.43-13.1-6.89-24.44-14.9-34.67 		c-2.4-3.07-2.73-6.21-1.09-9.72c2.09-4.48,3.64-9.1,3.56-14.15c-0.09-5.77-3.81-10.65-9.39-12.17c-5.04-1.37-9.2-4.17-12.61-8.59 		c3.14,0,6.07-0.38,8.85,0.12c2.4,0.43,4.68,1.66,7.02,2.54c9.75,3.68,14.45,12.64,12.45,23.49c-0.64,3.49-1.53,6.93-3.17,10.07 		c-1.14,2.19-0.86,3.71,0.64,5.63c6.67,8.56,11.49,18.06,13.95,28.68C149.53,119.49,150.09,125.03,149.85,130.62z"></path> 	<rect x="105.6" y="117.12" width="1.3" height="1.3"></rect> </g> <g> </g> <g> </g> <g> </g> <g> </g> <g> </g> <g> </g> <g> </g> <g> </g> <g> </g> <g> </g> <g> </g> <g> </g> <g> </g> <g> </g> <g> </g> </svg>